<?xml version="1.0" encoding="utf-8"?>
<!-- Generator: Adobe Illustrator 23.0.1, SVG Export Plug-In . SVG Version: 6.00 Build 0)  -->
<svg version="1.1" xmlns="http://www.w3.org/2000/svg" xmlns:xlink="http://www.w3.org/1999/xlink" x="0px" y="0px"
	 viewBox="0 0 1242.79 497.25" style="enable-background:new 0 0 1242.79 497.25;" xml:space="preserve">
<style type="text/css">
	.st0{display:none;}
	.st1{display:inline;}
	.st2{fill:#2C2E2D;}
	.st3{fill:#F2E9D9;}
	.st4{fill:#F4AB43;}
	.st5{fill:#FFFFFF;}
	.st6{fill:#FFFFFF;stroke:#000000;stroke-width:0.3231;stroke-miterlimit:10;}
</style>
<g id="paw-geo">
</g>
<g id="guide-paw" class="st0">
	<g class="st1">
	</g>
</g>
<g id="paw">
</g>
<g id="type-geo">
	<rect class="st2" width="792" height="252.56"/>
</g>
<g id="Capa_1">
	<g>
		<path d="M1662.05,81.75h10.5v2.76h-13.78V60.24h3.29V81.75z"/>
		<path d="M1682.94,67.08c1.25,0,2.39,0.21,3.39,0.63c1.01,0.42,1.87,1.01,2.58,1.78c0.7,0.77,1.25,1.7,1.63,2.79
			c0.38,1.09,0.57,2.31,0.57,3.65c0,1.35-0.19,2.57-0.57,3.66c-0.38,1.08-0.92,2.01-1.63,2.78c-0.71,0.77-1.56,1.36-2.58,1.77
			c-1.01,0.41-2.14,0.62-3.39,0.62c-1.25,0-2.38-0.21-3.39-0.62c-1.01-0.41-1.87-1-2.58-1.77c-0.71-0.77-1.26-1.69-1.64-2.78
			c-0.38-1.08-0.57-2.3-0.57-3.66c0-1.35,0.19-2.56,0.57-3.65c0.39-1.09,0.93-2.02,1.64-2.79c0.71-0.77,1.57-1.36,2.58-1.78
			C1680.56,67.29,1681.69,67.08,1682.94,67.08z M1682.94,82.39c1.69,0,2.96-0.57,3.79-1.7c0.83-1.13,1.25-2.72,1.25-4.75
			c0-2.04-0.42-3.64-1.25-4.78c-0.84-1.14-2.1-1.71-3.79-1.71c-0.86,0-1.6,0.15-2.24,0.44c-0.63,0.29-1.16,0.72-1.58,1.27
			c-0.42,0.55-0.74,1.23-0.95,2.04c-0.21,0.81-0.31,1.72-0.31,2.74c0,1.02,0.11,1.92,0.31,2.73c0.21,0.8,0.53,1.48,0.95,2.02
			c0.42,0.55,0.95,0.97,1.58,1.26C1681.34,82.24,1682.08,82.39,1682.94,82.39z"/>
		<path d="M1695.74,84.51V67.35h1.73c0.33,0,0.55,0.06,0.68,0.19c0.13,0.12,0.21,0.34,0.26,0.64l0.2,2.68
			c0.59-1.2,1.31-2.13,2.18-2.8c0.86-0.67,1.88-1.01,3.04-1.01c0.47,0,0.9,0.05,1.29,0.16c0.38,0.11,0.74,0.26,1.07,0.45l-0.39,2.25
			c-0.08,0.28-0.26,0.42-0.53,0.42c-0.16,0-0.4-0.05-0.73-0.16c-0.33-0.11-0.78-0.16-1.37-0.16c-1.05,0-1.93,0.3-2.63,0.91
			c-0.7,0.61-1.3,1.5-1.77,2.66v10.92H1695.74z"/>
		<path d="M1717.1,67.08c1.03,0,1.98,0.17,2.84,0.51c0.87,0.35,1.62,0.84,2.25,1.49c0.63,0.65,1.13,1.45,1.48,2.4
			c0.35,0.95,0.53,2.04,0.53,3.26c0,0.47-0.05,0.79-0.15,0.95c-0.1,0.16-0.29,0.24-0.58,0.24h-11.41c0.02,1.08,0.17,2.02,0.44,2.83
			c0.27,0.8,0.64,1.47,1.12,2.01c0.47,0.54,1.04,0.94,1.69,1.2s1.39,0.4,2.2,0.4c0.76,0,1.41-0.09,1.95-0.26
			c0.55-0.18,1.02-0.36,1.42-0.57c0.39-0.2,0.73-0.39,0.99-0.57c0.27-0.18,0.49-0.26,0.69-0.26c0.25,0,0.44,0.09,0.58,0.29l0.85,1.1
			c-0.37,0.45-0.82,0.84-1.34,1.18c-0.52,0.33-1.08,0.61-1.67,0.82c-0.59,0.21-1.21,0.37-1.84,0.48c-0.63,0.11-1.26,0.16-1.88,0.16
			c-1.18,0-2.28-0.2-3.28-0.6c-1-0.4-1.86-0.99-2.59-1.76c-0.73-0.77-1.3-1.73-1.7-2.87c-0.41-1.14-0.61-2.45-0.61-3.93
			c0-1.2,0.18-2.31,0.55-3.35c0.37-1.04,0.9-1.94,1.58-2.7c0.69-0.76,1.53-1.36,2.52-1.79C1714.74,67.3,1715.85,67.08,1717.1,67.08z
			 M1717.16,69.3c-1.46,0-2.6,0.42-3.44,1.26c-0.84,0.84-1.36,2.01-1.56,3.5h9.33c0-0.7-0.09-1.34-0.29-1.92
			c-0.19-0.58-0.47-1.08-0.85-1.51c-0.37-0.42-0.83-0.75-1.36-0.98C1718.47,69.42,1717.85,69.3,1717.16,69.3z"/>
		<path d="M1728.96,84.51V67.35h1.79c0.43,0,0.7,0.21,0.81,0.63l0.22,1.76c0.63-0.78,1.34-1.42,2.12-1.91
			c0.78-0.5,1.7-0.74,2.74-0.74c1.16,0,2.1,0.32,2.82,0.96c0.71,0.64,1.23,1.51,1.55,2.61c0.24-0.62,0.55-1.16,0.94-1.61
			c0.39-0.45,0.83-0.82,1.31-1.12c0.48-0.29,1-0.51,1.55-0.64c0.55-0.13,1.1-0.2,1.67-0.2c0.9,0,1.71,0.14,2.41,0.43
			c0.7,0.29,1.3,0.71,1.79,1.26c0.49,0.55,0.87,1.23,1.13,2.04c0.26,0.81,0.39,1.73,0.39,2.77v10.92h-3.01V73.59
			c0-1.34-0.29-2.36-0.88-3.06c-0.59-0.69-1.44-1.04-2.56-1.04c-0.5,0-0.97,0.09-1.41,0.26c-0.45,0.18-0.84,0.43-1.18,0.77
			c-0.34,0.34-0.61,0.77-0.81,1.28s-0.3,1.11-0.3,1.79v10.92h-3.01V73.59c0-1.38-0.28-2.4-0.83-3.08c-0.55-0.68-1.36-1.02-2.42-1.02
			c-0.75,0-1.44,0.2-2.07,0.6c-0.64,0.4-1.22,0.95-1.75,1.63v12.78H1728.96z"/>
		<path d="M1665.38,102.61c0,0.29-0.06,0.57-0.18,0.82c-0.12,0.25-0.28,0.48-0.47,0.68c-0.2,0.2-0.43,0.35-0.69,0.47
			c-0.26,0.11-0.54,0.17-0.83,0.17c-0.29,0-0.57-0.06-0.82-0.17c-0.26-0.11-0.48-0.27-0.68-0.47c-0.2-0.2-0.35-0.42-0.47-0.68
			c-0.11-0.25-0.17-0.53-0.17-0.82c0-0.29,0.06-0.57,0.17-0.84c0.11-0.26,0.27-0.5,0.47-0.69c0.2-0.2,0.42-0.35,0.68-0.47
			c0.25-0.11,0.53-0.17,0.82-0.17c0.29,0,0.57,0.06,0.83,0.17c0.26,0.11,0.49,0.27,0.69,0.47c0.2,0.2,0.36,0.43,0.47,0.69
			C1665.32,102.04,1665.38,102.32,1665.38,102.61z M1664.71,107.99v17.15h-3.01v-17.15H1664.71z"/>
		<path d="M1670.94,130.95v-22.96h1.79c0.43,0,0.7,0.21,0.81,0.63l0.25,2.03c0.73-0.89,1.57-1.61,2.52-2.15
			c0.94-0.54,2.03-0.81,3.26-0.81c0.98,0,1.87,0.19,2.68,0.57c0.8,0.38,1.49,0.94,2.05,1.67c0.56,0.74,1,1.66,1.3,2.75
			c0.3,1.1,0.46,2.35,0.46,3.78c0,1.26-0.17,2.44-0.51,3.53c-0.34,1.09-0.82,2.03-1.46,2.83c-0.63,0.8-1.41,1.42-2.33,1.88
			c-0.92,0.46-1.96,0.69-3.11,0.69c-1.06,0-1.97-0.18-2.72-0.53c-0.75-0.35-1.41-0.85-1.99-1.49v7.58H1670.94z M1678.57,110.13
			c-0.98,0-1.84,0.23-2.58,0.68s-1.42,1.09-2.04,1.91v8.3c0.55,0.75,1.16,1.27,1.82,1.58c0.66,0.3,1.4,0.46,2.21,0.46
			c1.59,0,2.82-0.57,3.67-1.71c0.86-1.14,1.29-2.77,1.29-4.88c0-1.12-0.1-2.08-0.3-2.88c-0.2-0.8-0.48-1.46-0.85-1.97
			c-0.37-0.51-0.83-0.89-1.37-1.12C1679.88,110.25,1679.26,110.13,1678.57,110.13z"/>
		<path d="M1700.37,110.82c-0.14,0.25-0.35,0.37-0.63,0.37c-0.17,0-0.36-0.06-0.58-0.19c-0.21-0.12-0.48-0.26-0.79-0.41
			c-0.31-0.15-0.68-0.29-1.11-0.42c-0.43-0.13-0.94-0.19-1.52-0.19c-0.51,0-0.97,0.07-1.37,0.19c-0.41,0.13-0.75,0.31-1.04,0.53
			c-0.29,0.23-0.51,0.49-0.66,0.79c-0.15,0.3-0.23,0.62-0.23,0.97c0,0.44,0.13,0.81,0.38,1.1c0.25,0.29,0.59,0.55,1.01,0.76
			c0.42,0.22,0.89,0.4,1.42,0.57c0.53,0.16,1.08,0.34,1.63,0.53c0.56,0.19,1.1,0.39,1.64,0.62c0.53,0.22,1,0.51,1.42,0.85
			c0.42,0.34,0.75,0.75,1.01,1.24c0.26,0.49,0.38,1.08,0.38,1.77c0,0.79-0.14,1.52-0.42,2.19s-0.7,1.25-1.25,1.74
			c-0.55,0.49-1.23,0.88-2.03,1.16c-0.8,0.28-1.73,0.42-2.78,0.42c-1.2,0-2.28-0.2-3.25-0.59c-0.97-0.39-1.8-0.89-2.47-1.5
			l0.71-1.15c0.09-0.15,0.2-0.26,0.32-0.34c0.12-0.08,0.29-0.12,0.49-0.12c0.2,0,0.42,0.08,0.64,0.24c0.22,0.16,0.5,0.33,0.82,0.52
			c0.32,0.19,0.71,0.37,1.17,0.53c0.46,0.16,1.03,0.24,1.72,0.24c0.59,0,1.1-0.08,1.54-0.23c0.44-0.15,0.81-0.36,1.1-0.62
			c0.29-0.26,0.51-0.56,0.65-0.9c0.14-0.34,0.21-0.7,0.21-1.08c0-0.48-0.13-0.87-0.38-1.18c-0.26-0.31-0.59-0.57-1.01-0.8
			c-0.42-0.22-0.89-0.41-1.43-0.57c-0.54-0.16-1.08-0.34-1.64-0.52c-0.56-0.18-1.11-0.39-1.64-0.62s-1.01-0.52-1.43-0.87
			c-0.42-0.35-0.75-0.78-1.01-1.29c-0.26-0.51-0.38-1.14-0.38-1.87c0-0.65,0.13-1.28,0.41-1.89c0.27-0.6,0.67-1.14,1.18-1.59
			c0.52-0.46,1.16-0.82,1.91-1.09c0.76-0.27,1.62-0.41,2.59-0.41c1.13,0,2.14,0.18,3.04,0.53c0.9,0.35,1.67,0.84,2.33,1.46
			L1700.37,110.82z"/>
		<path d="M1708.77,107.99v10.94c0,1.3,0.3,2.3,0.9,3.01c0.6,0.71,1.5,1.07,2.71,1.07c0.88,0,1.71-0.21,2.49-0.63s1.5-1,2.15-1.74
			v-12.65h3.01v17.15h-1.79c-0.43,0-0.7-0.21-0.81-0.63l-0.24-1.85c-0.74,0.82-1.58,1.49-2.5,1.99c-0.93,0.5-1.99,0.75-3.18,0.75
			c-0.94,0-1.76-0.16-2.48-0.47c-0.72-0.31-1.32-0.75-1.8-1.31c-0.49-0.56-0.85-1.25-1.09-2.05c-0.24-0.8-0.36-1.69-0.36-2.66
			v-10.94H1708.77z"/>
		<path d="M1725.9,125.15v-17.15h1.79c0.43,0,0.7,0.21,0.81,0.63l0.22,1.76c0.63-0.78,1.34-1.42,2.12-1.91
			c0.78-0.5,1.7-0.74,2.74-0.74c1.16,0,2.1,0.32,2.82,0.96c0.71,0.64,1.23,1.51,1.55,2.61c0.24-0.62,0.55-1.16,0.94-1.61
			c0.39-0.45,0.83-0.82,1.31-1.12c0.48-0.29,1-0.51,1.55-0.64c0.55-0.13,1.1-0.2,1.67-0.2c0.9,0,1.71,0.14,2.41,0.43
			c0.7,0.29,1.3,0.71,1.79,1.26c0.49,0.55,0.87,1.23,1.13,2.04c0.26,0.81,0.39,1.73,0.39,2.77v10.92h-3.01v-10.92
			c0-1.34-0.29-2.36-0.88-3.06c-0.59-0.69-1.44-1.04-2.56-1.04c-0.5,0-0.97,0.09-1.41,0.26c-0.45,0.18-0.84,0.43-1.18,0.77
			c-0.34,0.34-0.61,0.77-0.81,1.28c-0.2,0.51-0.3,1.11-0.3,1.79v10.92h-3.01v-10.92c0-1.38-0.28-2.4-0.83-3.08
			c-0.55-0.68-1.36-1.02-2.42-1.02c-0.75,0-1.44,0.2-2.07,0.6c-0.64,0.4-1.22,0.95-1.75,1.63v12.78H1725.9z"/>
	</g>
	<g>
		<circle class="st3" cx="1824.25" cy="-65.47" r="128.16"/>
	</g>
	<g>
		<circle class="st2" cx="1865.26" cy="112.66" r="128.16"/>
	</g>
	<g>
		<circle class="st4" cx="1696.09" cy="82.46" r="128.16"/>
	</g>
	<g>
		<circle class="st5" cx="1750.87" cy="-18.62" r="54.79"/>
	</g>
	<g>
		<path class="st5" d="M1632.34,85.43l-0.78,3.42h3.35c0.14,0.23,0.27,0.53,0.41,0.9c0.14,0.37,0.2,0.77,0.2,1.2
			c0,0.79-0.18,1.35-0.53,1.69c-0.35,0.34-0.82,0.51-1.4,0.51h-2.98l-0.95,4.4c-0.32,0.05-0.6,0.07-0.86,0.09
			c-0.26,0.01-0.52,0.02-0.76,0.02c-0.86,0-1.54-0.16-2.03-0.49c-0.5-0.33-0.74-0.94-0.74-1.85c0-0.34,0.03-0.69,0.08-1.07
			c0.06-0.37,0.12-0.74,0.19-1.1h-3.05l-0.95,4.4c-0.32,0.05-0.6,0.07-0.86,0.09c-0.26,0.01-0.51,0.02-0.76,0.02
			c-0.86,0-1.53-0.16-2.03-0.49c-0.5-0.33-0.75-0.94-0.75-1.85c0-0.34,0.03-0.69,0.08-1.07c0.06-0.37,0.12-0.74,0.19-1.1h-2.51
			c-0.16-0.22-0.3-0.53-0.42-0.9c-0.13-0.37-0.19-0.77-0.19-1.2c0-0.79,0.18-1.36,0.53-1.69c0.35-0.34,0.82-0.51,1.4-0.51h2.13
			l0.75-3.42h-3.29c-0.16-0.22-0.3-0.53-0.42-0.9c-0.12-0.37-0.19-0.77-0.19-1.2c0-0.79,0.18-1.36,0.53-1.69
			c0.35-0.34,0.82-0.51,1.4-0.51h2.91l0.98-4.44c0.32-0.05,0.61-0.07,0.9-0.07s0.54,0,0.76,0c0.84,0,1.51,0.15,2.03,0.46
			c0.52,0.3,0.78,0.91,0.78,1.81c0,0.36-0.03,0.73-0.1,1.1c-0.07,0.37-0.15,0.75-0.24,1.14h3.02l0.98-4.44
			c0.32-0.05,0.62-0.07,0.9-0.07s0.54,0,0.76,0c0.83,0,1.51,0.15,2.03,0.46c0.52,0.3,0.78,0.91,0.78,1.81c0,0.36-0.03,0.73-0.1,1.1
			c-0.07,0.37-0.15,0.75-0.24,1.14h2.54c0.14,0.23,0.27,0.53,0.41,0.9c0.14,0.37,0.2,0.77,0.2,1.2c0,0.79-0.18,1.36-0.53,1.69
			c-0.35,0.34-0.82,0.51-1.41,0.51H1632.34z M1623.44,88.85h3.05l0.74-3.42h-3.01L1623.44,88.85z"/>
		<path class="st5" d="M1641.42,77.84c0.56-0.56,1.33-0.85,2.3-0.85H1655c0.16,0.25,0.3,0.58,0.42,0.98
			c0.13,0.41,0.19,0.85,0.19,1.32c0,0.86-0.19,1.48-0.56,1.86c-0.37,0.38-0.88,0.57-1.51,0.57h-7.11v3.83h7.42
			c0.16,0.25,0.3,0.57,0.44,0.96c0.13,0.4,0.2,0.83,0.2,1.3c0,0.86-0.19,1.47-0.56,1.85c-0.37,0.37-0.88,0.56-1.51,0.56h-5.93v7.25
			c-0.25,0.07-0.63,0.13-1.15,0.2c-0.52,0.07-1.05,0.1-1.59,0.1c-1.2,0-2.03-0.2-2.49-0.61c-0.46-0.41-0.69-1.14-0.69-2.2V80.14
			C1640.57,79.17,1640.85,78.41,1641.42,77.84z"/>
		<path class="st5" d="M1666.65,77.16c0.43-0.14,0.92-0.25,1.47-0.34c0.55-0.09,1.05-0.13,1.51-0.13c0.52,0,1.02,0.05,1.51,0.15
			c0.49,0.1,0.92,0.27,1.3,0.51s0.69,0.56,0.91,0.97c0.23,0.41,0.34,0.91,0.34,1.52v9.01h2.67c0.14,0.25,0.27,0.58,0.41,0.98
			c0.13,0.41,0.2,0.84,0.2,1.29c0,0.86-0.19,1.47-0.57,1.83c-0.39,0.36-0.87,0.54-1.46,0.54h-1.25v4c-0.25,0.04-0.62,0.11-1.12,0.19
			c-0.5,0.08-0.97,0.12-1.42,0.12c-0.5,0-0.94-0.02-1.32-0.07c-0.38-0.05-0.7-0.15-0.96-0.32c-0.26-0.17-0.46-0.41-0.59-0.73
			c-0.14-0.32-0.2-0.75-0.2-1.29v-1.9h-8.03c-0.52-0.27-0.96-0.67-1.34-1.2c-0.37-0.53-0.56-1.18-0.56-1.95
			c0-0.43,0.05-0.9,0.15-1.42c0.1-0.52,0.3-0.97,0.59-1.35L1666.65,77.16z M1668.38,82.48h-0.13l-4.17,6.37h4.3V82.48z"/>
		<path class="st5" d="M1692.56,93.25h-6.13c-0.23,0.81-0.42,1.57-0.59,2.27c-0.17,0.7-0.33,1.36-0.49,1.97
			c-0.32,0.11-0.65,0.21-1,0.29c-0.35,0.08-0.77,0.12-1.27,0.12c-1.15,0-2-0.2-2.56-0.59c-0.55-0.39-0.83-0.94-0.83-1.64
			c0-0.32,0.05-0.63,0.14-0.95c0.09-0.32,0.19-0.69,0.3-1.12c0.16-0.61,0.38-1.37,0.66-2.29c0.28-0.91,0.59-1.9,0.93-2.95
			c0.34-1.05,0.7-2.12,1.08-3.22c0.38-1.09,0.74-2.13,1.08-3.11c0.34-0.98,0.65-1.86,0.93-2.64c0.28-0.78,0.5-1.37,0.66-1.78
			c0.39-0.22,0.97-0.44,1.74-0.64s1.56-0.3,2.35-0.3c1.13,0,2.13,0.16,3,0.49c0.87,0.33,1.43,0.85,1.68,1.58
			c0.41,1.15,0.85,2.5,1.32,4.06c0.48,1.56,0.95,3.17,1.42,4.82c0.47,1.66,0.94,3.3,1.39,4.91c0.45,1.62,0.85,3.04,1.18,4.28
			c-0.27,0.32-0.68,0.57-1.22,0.76s-1.18,0.29-1.93,0.29c-1.11,0-1.87-0.18-2.3-0.54c-0.43-0.36-0.74-0.94-0.95-1.73L1692.56,93.25z
			 M1689.54,81.97c-0.32,0.93-0.67,1.95-1.05,3.08c-0.38,1.13-0.76,2.34-1.12,3.62h4.2c-0.32-1.29-0.64-2.5-0.96-3.64
			s-0.62-2.16-0.86-3.07H1689.54z"/>
		<path class="st5" d="M1720.16,82.38c0,1.02-0.28,1.88-0.85,2.59c-0.56,0.71-1.36,1.27-2.37,1.68c2.62,0.86,3.93,2.47,3.93,4.84
			c0,2.24-0.83,3.89-2.49,4.96c-1.66,1.07-4.05,1.61-7.16,1.61c-0.39,0-0.84-0.01-1.36-0.03c-0.52-0.02-1.05-0.07-1.61-0.14
			c-0.55-0.07-1.1-0.15-1.64-0.25c-0.54-0.1-1.04-0.24-1.49-0.42c-1.24-0.47-1.86-1.3-1.86-2.47V78.92c0-0.48,0.13-0.84,0.39-1.1
			c0.26-0.26,0.61-0.47,1.06-0.63c0.77-0.27,1.73-0.47,2.88-0.59c1.15-0.12,2.34-0.19,3.56-0.19c2.89,0,5.11,0.49,6.67,1.46
			C1719.38,78.84,1720.16,80.35,1720.16,82.38z M1709.02,85.02h2.47c0.97,0,1.68-0.18,2.12-0.54c0.44-0.36,0.66-0.89,0.66-1.59
			c0-0.61-0.26-1.09-0.76-1.46c-0.51-0.36-1.27-0.54-2.29-0.54c-0.34,0-0.73,0.01-1.17,0.03c-0.44,0.02-0.78,0.06-1.03,0.1V85.02z
			 M1714.81,91.22c0-1.38-0.93-2.07-2.78-2.07h-3.01v4.13c0.32,0.09,0.72,0.15,1.22,0.19c0.5,0.04,0.97,0.05,1.42,0.05
			c0.9,0,1.65-0.19,2.25-0.56C1714.51,92.59,1714.81,92.01,1714.81,91.22z"/>
		<path class="st5" d="M1732.48,77.16c0.43-0.14,0.92-0.25,1.47-0.34c0.55-0.09,1.05-0.13,1.51-0.13c0.52,0,1.02,0.05,1.51,0.15
			c0.49,0.1,0.92,0.27,1.3,0.51c0.38,0.24,0.69,0.56,0.91,0.97c0.23,0.41,0.34,0.91,0.34,1.52v9.01h2.67
			c0.14,0.25,0.27,0.58,0.41,0.98c0.13,0.41,0.2,0.84,0.2,1.29c0,0.86-0.19,1.47-0.57,1.83c-0.39,0.36-0.87,0.54-1.46,0.54h-1.25v4
			c-0.25,0.04-0.62,0.11-1.12,0.19c-0.5,0.08-0.97,0.12-1.42,0.12c-0.5,0-0.94-0.02-1.32-0.07c-0.38-0.05-0.7-0.15-0.96-0.32
			c-0.26-0.17-0.46-0.41-0.59-0.73c-0.14-0.32-0.2-0.75-0.2-1.29v-1.9h-8.03c-0.52-0.27-0.96-0.67-1.34-1.2
			c-0.37-0.53-0.56-1.18-0.56-1.95c0-0.43,0.05-0.9,0.15-1.42c0.1-0.52,0.3-0.97,0.59-1.35L1732.48,77.16z M1734.21,82.48h-0.13
			l-4.17,6.37h4.3V82.48z"/>
		<path class="st5" d="M1752.13,76.42c2.6,0,4.57,0.54,5.93,1.61c1.36,1.07,2.03,2.51,2.03,4.32c0,1.08-0.29,2-0.86,2.76
			c-0.58,0.76-1.26,1.33-2.05,1.71c0.47,0.18,0.91,0.41,1.32,0.68c0.41,0.27,0.77,0.61,1.08,1.02c0.32,0.41,0.56,0.88,0.75,1.42
			c0.18,0.54,0.27,1.17,0.27,1.9c0,0.97-0.21,1.84-0.63,2.61c-0.42,0.77-1,1.42-1.74,1.96c-0.75,0.54-1.63,0.96-2.66,1.24
			c-1.03,0.28-2.15,0.42-3.37,0.42c-2.35,0-4.12-0.33-5.32-0.98c-1.2-0.65-1.79-1.49-1.79-2.5c0-0.61,0.15-1.14,0.44-1.58
			c0.29-0.44,0.65-0.78,1.08-1.03c0.45,0.32,1.05,0.65,1.81,1c0.76,0.35,1.74,0.53,2.96,0.53c1.15,0,2-0.2,2.56-0.61
			c0.55-0.41,0.83-0.94,0.83-1.59s-0.22-1.15-0.66-1.49c-0.44-0.34-1.2-0.51-2.28-0.51h-3.18c-0.16-0.25-0.29-0.55-0.41-0.91
			c-0.11-0.36-0.17-0.79-0.17-1.29c0-0.52,0.05-0.97,0.15-1.34c0.1-0.37,0.24-0.68,0.42-0.93h3.18c1.63,0,2.44-0.62,2.44-1.86
			c0-0.59-0.26-1.06-0.78-1.42c-0.52-0.36-1.3-0.54-2.34-0.54c-0.93,0-1.74,0.11-2.44,0.32c-0.7,0.21-1.28,0.48-1.73,0.8
			c-0.39-0.27-0.7-0.6-0.95-1c-0.25-0.4-0.37-0.86-0.37-1.4c0-1.13,0.59-1.96,1.76-2.49C1748.59,76.68,1750.16,76.42,1752.13,76.42z
			"/>
	</g>
	<g>
		<path class="st5" d="M1847.6,126.4l-0.78,3.42h3.35c0.14,0.23,0.27,0.53,0.41,0.9c0.14,0.37,0.2,0.77,0.2,1.2
			c0,0.79-0.18,1.35-0.53,1.69c-0.35,0.34-0.82,0.51-1.4,0.51h-2.98l-0.95,4.4c-0.32,0.05-0.6,0.07-0.86,0.09
			c-0.26,0.01-0.52,0.02-0.76,0.02c-0.86,0-1.54-0.16-2.03-0.49c-0.5-0.33-0.74-0.94-0.74-1.85c0-0.34,0.03-0.69,0.08-1.07
			c0.06-0.37,0.12-0.74,0.19-1.1h-3.05l-0.95,4.4c-0.32,0.05-0.6,0.07-0.86,0.09c-0.26,0.01-0.51,0.02-0.76,0.02
			c-0.86,0-1.53-0.16-2.03-0.49c-0.5-0.33-0.75-0.94-0.75-1.85c0-0.34,0.03-0.69,0.08-1.07c0.06-0.37,0.12-0.74,0.19-1.1h-2.51
			c-0.16-0.22-0.3-0.53-0.42-0.9c-0.13-0.37-0.19-0.77-0.19-1.2c0-0.79,0.18-1.36,0.53-1.69c0.35-0.34,0.82-0.51,1.4-0.51h2.13
			l0.75-3.42h-3.29c-0.16-0.22-0.3-0.53-0.42-0.9c-0.12-0.37-0.19-0.77-0.19-1.2c0-0.79,0.18-1.36,0.53-1.69
			c0.35-0.34,0.82-0.51,1.4-0.51h2.91l0.98-4.44c0.32-0.05,0.61-0.07,0.9-0.07s0.54,0,0.76,0c0.84,0,1.51,0.15,2.03,0.46
			c0.52,0.3,0.78,0.91,0.78,1.81c0,0.36-0.04,0.73-0.1,1.1c-0.07,0.37-0.15,0.75-0.24,1.14h3.02l0.98-4.44
			c0.32-0.05,0.62-0.07,0.9-0.07s0.54,0,0.76,0c0.83,0,1.51,0.15,2.03,0.46c0.52,0.3,0.78,0.91,0.78,1.81c0,0.36-0.03,0.73-0.1,1.1
			c-0.07,0.37-0.15,0.75-0.24,1.14h2.54c0.14,0.23,0.27,0.53,0.41,0.9c0.14,0.37,0.2,0.77,0.2,1.2c0,0.79-0.18,1.36-0.53,1.69
			c-0.35,0.34-0.82,0.51-1.4,0.51H1847.6z M1838.69,129.82h3.05l0.74-3.42h-3.01L1838.69,129.82z"/>
		<path class="st5" d="M1855.66,120.88c0-1.17,0.55-2.05,1.66-2.62c1.11-0.57,2.6-0.86,4.47-0.86c1.33,0,2.51,0.16,3.52,0.49
			c1.02,0.33,1.86,0.77,2.54,1.34s1.18,1.23,1.52,2c0.34,0.77,0.51,1.59,0.51,2.47c0,2.37-1.34,4.63-4.03,6.77l-4.44,3.56h8.13
			c0.13,0.25,0.26,0.56,0.39,0.95c0.12,0.39,0.19,0.8,0.19,1.25c0,0.81-0.18,1.39-0.54,1.74c-0.36,0.35-0.83,0.53-1.42,0.53h-11.75
			c-0.5-0.34-0.89-0.77-1.17-1.3c-0.28-0.53-0.42-1.16-0.42-1.88c0-0.77,0.16-1.42,0.48-1.95c0.32-0.53,0.67-0.95,1.05-1.27l4.67-4
			c0.59-0.5,1.07-0.94,1.46-1.34c0.38-0.4,0.69-0.75,0.93-1.07c0.24-0.32,0.41-0.61,0.51-0.88c0.1-0.27,0.15-0.53,0.15-0.78
			c0-0.63-0.25-1.13-0.76-1.49c-0.51-0.36-1.22-0.54-2.12-0.54c-0.9,0-1.71,0.14-2.42,0.42c-0.71,0.28-1.3,0.58-1.78,0.9
			c-0.39-0.27-0.7-0.61-0.95-1.02C1855.78,121.89,1855.66,121.42,1855.66,120.88z"/>
		<path class="st5" d="M1890.54,120.95c0,0.59-0.15,1.1-0.44,1.52c-0.29,0.43-0.63,0.77-1.02,1.02c-0.59-0.38-1.21-0.71-1.88-0.98
			c-0.67-0.27-1.44-0.41-2.32-0.41c-1.74,0-3.07,0.54-3.99,1.61c-0.93,1.07-1.39,2.58-1.39,4.52c0,2.01,0.5,3.53,1.51,4.55
			c1.01,1.03,2.4,1.54,4.18,1.54c0.93,0,1.71-0.12,2.35-0.37c0.64-0.25,1.26-0.53,1.85-0.85c0.38,0.32,0.68,0.69,0.9,1.14
			c0.21,0.44,0.32,0.95,0.32,1.54c0,0.52-0.14,0.99-0.41,1.42c-0.27,0.43-0.74,0.79-1.39,1.08c-0.41,0.18-0.98,0.36-1.73,0.54
			c-0.75,0.18-1.65,0.27-2.71,0.27c-1.54,0-2.97-0.21-4.3-0.64c-1.33-0.43-2.49-1.09-3.49-1.97c-0.99-0.88-1.77-2-2.34-3.37
			c-0.56-1.37-0.85-3-0.85-4.89c0-1.76,0.28-3.32,0.83-4.67c0.55-1.36,1.31-2.49,2.27-3.42c0.96-0.93,2.08-1.63,3.37-2.1
			c1.29-0.47,2.66-0.71,4.13-0.71c2.08,0,3.69,0.34,4.83,1.02C1889.97,119.02,1890.54,119.89,1890.54,120.95z"/>
		<path class="st5" d="M1894.5,120.88c0-1.17,0.55-2.05,1.66-2.62c1.11-0.57,2.6-0.86,4.47-0.86c1.33,0,2.51,0.16,3.52,0.49
			c1.02,0.33,1.86,0.77,2.54,1.34s1.18,1.23,1.52,2c0.34,0.77,0.51,1.59,0.51,2.47c0,2.37-1.34,4.63-4.03,6.77l-4.44,3.56h8.13
			c0.13,0.25,0.26,0.56,0.39,0.95c0.12,0.39,0.19,0.8,0.19,1.25c0,0.81-0.18,1.39-0.54,1.74c-0.36,0.35-0.83,0.53-1.42,0.53h-11.75
			c-0.5-0.34-0.89-0.77-1.17-1.3c-0.28-0.53-0.42-1.16-0.42-1.88c0-0.77,0.16-1.42,0.48-1.95c0.32-0.53,0.67-0.95,1.05-1.27l4.67-4
			c0.59-0.5,1.07-0.94,1.46-1.34c0.38-0.4,0.69-0.75,0.93-1.07c0.24-0.32,0.41-0.61,0.51-0.88c0.1-0.27,0.15-0.53,0.15-0.78
			c0-0.63-0.25-1.13-0.76-1.49c-0.51-0.36-1.22-0.54-2.12-0.54c-0.9,0-1.71,0.14-2.42,0.42c-0.71,0.28-1.3,0.58-1.78,0.9
			c-0.39-0.27-0.7-0.61-0.95-1.02C1894.62,121.89,1894.5,121.42,1894.5,120.88z"/>
		<path class="st5" d="M1914.11,137.74c-0.57-0.56-0.85-1.33-0.85-2.3v-14.33c0-0.97,0.28-1.74,0.85-2.3
			c0.56-0.56,1.33-0.85,2.3-0.85h11.18c0.16,0.25,0.3,0.57,0.42,0.95c0.12,0.38,0.19,0.81,0.19,1.29c0,0.83-0.18,1.44-0.54,1.83
			c-0.36,0.39-0.86,0.58-1.49,0.58h-7.15v3.15h7.62c0.16,0.25,0.3,0.56,0.42,0.95c0.12,0.38,0.19,0.81,0.19,1.29
			c0,0.83-0.18,1.44-0.54,1.81c-0.36,0.37-0.86,0.56-1.49,0.56h-6.2v3.56h8.7c0.16,0.25,0.3,0.57,0.42,0.98
			c0.12,0.41,0.19,0.85,0.19,1.32c0,0.83-0.18,1.44-0.54,1.81c-0.36,0.37-0.86,0.56-1.49,0.56h-9.89
			C1915.44,138.59,1914.67,138.31,1914.11,137.74z"/>
		<path class="st5" d="M1932.49,120.88c0-1.17,0.55-2.05,1.66-2.62c1.11-0.57,2.6-0.86,4.47-0.86c1.33,0,2.51,0.16,3.52,0.49
			c1.02,0.33,1.86,0.77,2.54,1.34s1.18,1.23,1.52,2c0.34,0.77,0.51,1.59,0.51,2.47c0,2.37-1.34,4.63-4.03,6.77l-4.44,3.56h8.13
			c0.13,0.25,0.26,0.56,0.39,0.95c0.12,0.39,0.19,0.8,0.19,1.25c0,0.81-0.18,1.39-0.54,1.74c-0.36,0.35-0.83,0.53-1.42,0.53h-11.75
			c-0.5-0.34-0.89-0.77-1.17-1.3c-0.28-0.53-0.42-1.16-0.42-1.88c0-0.77,0.16-1.42,0.48-1.95c0.32-0.53,0.67-0.95,1.05-1.27l4.67-4
			c0.59-0.5,1.07-0.94,1.46-1.34c0.38-0.4,0.69-0.75,0.93-1.07c0.24-0.32,0.41-0.61,0.51-0.88c0.1-0.27,0.15-0.53,0.15-0.78
			c0-0.63-0.25-1.13-0.76-1.49c-0.51-0.36-1.22-0.54-2.12-0.54c-0.9,0-1.71,0.14-2.42,0.42c-0.71,0.28-1.3,0.58-1.78,0.9
			c-0.39-0.27-0.7-0.61-0.95-1.02C1932.62,121.89,1932.49,121.42,1932.49,120.88z"/>
		<path class="st5" d="M1970.43,128.19c0,1.81-0.27,3.39-0.81,4.74c-0.54,1.35-1.32,2.48-2.32,3.39c-1.01,0.9-2.21,1.58-3.61,2.03
			c-1.4,0.45-2.95,0.68-4.64,0.68c-0.39,0-0.82-0.01-1.32-0.03c-0.5-0.02-1.01-0.07-1.54-0.14c-0.53-0.07-1.06-0.15-1.59-0.25
			c-0.53-0.1-1.02-0.24-1.47-0.42c-1.24-0.47-1.86-1.3-1.86-2.47V119.9c0-0.48,0.13-0.84,0.39-1.1c0.26-0.26,0.61-0.47,1.06-0.63
			c0.97-0.32,2-0.53,3.08-0.63c1.08-0.1,2.05-0.15,2.91-0.15c1.76,0,3.36,0.21,4.79,0.64c1.43,0.43,2.66,1.09,3.69,1.98
			c1.03,0.89,1.82,2.01,2.39,3.37C1970.14,124.74,1970.43,126.34,1970.43,128.19z M1964.33,128.3c0-2.03-0.47-3.56-1.42-4.59
			c-0.95-1.03-2.21-1.54-3.79-1.54c-0.32,0-0.64,0.01-0.97,0.03c-0.33,0.02-0.66,0.06-1,0.1v11.79c0.25,0.05,0.55,0.08,0.91,0.12
			c0.36,0.04,0.7,0.05,1.02,0.05c1.56,0,2.82-0.5,3.79-1.49C1963.84,131.77,1964.33,130.28,1964.33,128.3z"/>
	</g>
	<g>
		<path class="st5" d="M1777.03-104.85l-0.78,3.42h3.35c0.14,0.23,0.27,0.53,0.41,0.9c0.14,0.37,0.2,0.77,0.2,1.2
			c0,0.79-0.18,1.35-0.53,1.69c-0.35,0.34-0.82,0.51-1.4,0.51h-2.98l-0.95,4.4c-0.32,0.05-0.6,0.07-0.86,0.09
			c-0.26,0.01-0.52,0.02-0.76,0.02c-0.86,0-1.54-0.16-2.03-0.49c-0.5-0.33-0.74-0.94-0.74-1.85c0-0.34,0.03-0.69,0.08-1.07
			c0.06-0.37,0.12-0.74,0.19-1.1h-3.05l-0.95,4.4c-0.32,0.05-0.6,0.07-0.86,0.09c-0.26,0.01-0.51,0.02-0.76,0.02
			c-0.86,0-1.53-0.16-2.03-0.49c-0.5-0.33-0.75-0.94-0.75-1.85c0-0.34,0.03-0.69,0.08-1.07c0.06-0.37,0.12-0.74,0.19-1.1h-2.51
			c-0.16-0.22-0.3-0.53-0.42-0.9c-0.13-0.37-0.19-0.77-0.19-1.2c0-0.79,0.18-1.36,0.53-1.69c0.35-0.34,0.82-0.51,1.4-0.51h2.13
			l0.75-3.42h-3.29c-0.16-0.22-0.3-0.53-0.42-0.9c-0.12-0.37-0.19-0.77-0.19-1.2c0-0.79,0.18-1.36,0.53-1.69
			c0.35-0.34,0.82-0.51,1.4-0.51h2.91l0.98-4.44c0.32-0.05,0.61-0.07,0.9-0.07s0.54,0,0.76,0c0.84,0,1.51,0.15,2.03,0.46
			c0.52,0.3,0.78,0.91,0.78,1.81c0,0.36-0.04,0.73-0.1,1.1c-0.07,0.37-0.15,0.75-0.24,1.14h3.02l0.98-4.44
			c0.32-0.05,0.62-0.07,0.9-0.07s0.54,0,0.76,0c0.83,0,1.51,0.15,2.03,0.46c0.52,0.3,0.78,0.91,0.78,1.81c0,0.36-0.03,0.73-0.1,1.1
			c-0.07,0.37-0.15,0.75-0.24,1.14h2.54c0.14,0.23,0.27,0.53,0.41,0.9c0.14,0.37,0.2,0.77,0.2,1.2c0,0.79-0.18,1.36-0.53,1.69
			c-0.35,0.34-0.82,0.51-1.4,0.51H1777.03z M1768.13-101.43h3.05l0.74-3.42h-3.01L1768.13-101.43z"/>
		<path class="st5" d="M1804.43-103.06c0,1.81-0.27,3.39-0.81,4.74c-0.54,1.35-1.32,2.48-2.32,3.39c-1.01,0.9-2.21,1.58-3.61,2.03
			c-1.4,0.45-2.95,0.68-4.64,0.68c-0.39,0-0.82-0.01-1.32-0.03c-0.5-0.02-1.01-0.07-1.54-0.14c-0.53-0.07-1.06-0.15-1.59-0.25
			c-0.53-0.1-1.02-0.24-1.47-0.42c-1.24-0.47-1.86-1.3-1.86-2.47v-15.81c0-0.48,0.13-0.84,0.39-1.1s0.61-0.47,1.07-0.63
			c0.97-0.32,2-0.53,3.08-0.63c1.08-0.1,2.05-0.15,2.91-0.15c1.76,0,3.36,0.21,4.79,0.64c1.43,0.43,2.66,1.09,3.69,1.98
			c1.03,0.89,1.82,2.01,2.39,3.37C1804.15-106.51,1804.43-104.91,1804.43-103.06z M1798.33-102.95c0-2.03-0.47-3.56-1.42-4.59
			c-0.95-1.03-2.21-1.54-3.79-1.54c-0.32,0-0.64,0.01-0.97,0.03c-0.33,0.02-0.66,0.06-1,0.1v11.79c0.25,0.05,0.55,0.08,0.91,0.12
			c0.36,0.04,0.7,0.05,1.02,0.05c1.56,0,2.82-0.5,3.79-1.49C1797.85-99.48,1798.33-100.97,1798.33-102.95z"/>
		<path class="st5" d="M1825.63-107.9c0,1.02-0.28,1.88-0.85,2.59c-0.56,0.71-1.36,1.27-2.37,1.68c2.62,0.86,3.93,2.47,3.93,4.84
			c0,2.24-0.83,3.89-2.49,4.96c-1.66,1.07-4.05,1.61-7.16,1.61c-0.39,0-0.84-0.01-1.36-0.03c-0.52-0.02-1.05-0.07-1.61-0.14
			c-0.55-0.07-1.1-0.15-1.64-0.25c-0.54-0.1-1.04-0.24-1.49-0.42c-1.24-0.47-1.86-1.3-1.86-2.47v-15.81c0-0.48,0.13-0.84,0.39-1.1
			c0.26-0.26,0.61-0.47,1.06-0.63c0.77-0.27,1.73-0.47,2.88-0.59c1.15-0.12,2.34-0.19,3.56-0.19c2.89,0,5.11,0.49,6.67,1.46
			C1824.85-111.43,1825.63-109.93,1825.63-107.9z M1814.49-105.26h2.47c0.97,0,1.68-0.18,2.12-0.54c0.44-0.36,0.66-0.89,0.66-1.59
			c0-0.61-0.26-1.09-0.76-1.46c-0.51-0.36-1.27-0.54-2.29-0.54c-0.34,0-0.73,0.01-1.17,0.03c-0.44,0.02-0.78,0.06-1.03,0.1V-105.26z
			 M1820.28-99.06c0-1.38-0.93-2.07-2.78-2.07h-3.01v4.13c0.32,0.09,0.72,0.15,1.22,0.19c0.5,0.04,0.97,0.05,1.42,0.05
			c0.9,0,1.65-0.19,2.25-0.56C1819.98-97.69,1820.28-98.27,1820.28-99.06z"/>
		<path class="st5" d="M1849.78-103.06c0,1.81-0.27,3.39-0.81,4.74c-0.54,1.35-1.32,2.48-2.32,3.39c-1.01,0.9-2.21,1.58-3.61,2.03
			c-1.4,0.45-2.95,0.68-4.64,0.68c-0.39,0-0.82-0.01-1.32-0.03c-0.5-0.02-1.01-0.07-1.54-0.14c-0.53-0.07-1.06-0.15-1.59-0.25
			c-0.53-0.1-1.02-0.24-1.47-0.42c-1.24-0.47-1.86-1.3-1.86-2.47v-15.81c0-0.48,0.13-0.84,0.39-1.1c0.26-0.26,0.61-0.47,1.07-0.63
			c0.97-0.32,2-0.53,3.08-0.63c1.08-0.1,2.05-0.15,2.91-0.15c1.76,0,3.36,0.21,4.79,0.64c1.43,0.43,2.66,1.09,3.69,1.98
			c1.03,0.89,1.82,2.01,2.39,3.37C1849.49-106.51,1849.78-104.91,1849.78-103.06z M1843.68-102.95c0-2.03-0.47-3.56-1.42-4.59
			c-0.95-1.03-2.21-1.54-3.79-1.54c-0.32,0-0.64,0.01-0.97,0.03c-0.33,0.02-0.66,0.06-1,0.1v11.79c0.25,0.05,0.55,0.08,0.91,0.12
			c0.36,0.04,0.7,0.05,1.02,0.05c1.56,0,2.82-0.5,3.79-1.49C1843.2-99.48,1843.68-100.97,1843.68-102.95z"/>
		<path class="st5" d="M1854.21-95.23c0-0.47,0.11-0.93,0.32-1.37c0.21-0.44,0.47-0.77,0.76-1c0.61,0.27,1.25,0.48,1.91,0.63
			c0.67,0.15,1.28,0.22,1.85,0.22c1.47,0,2.63-0.38,3.49-1.14c0.86-0.76,1.29-1.77,1.29-3.03v-0.07c-0.45,0.36-1.02,0.64-1.71,0.85
			c-0.69,0.2-1.43,0.3-2.22,0.3c-1.02,0-1.95-0.14-2.79-0.42c-0.85-0.28-1.58-0.71-2.2-1.27c-0.62-0.56-1.1-1.27-1.44-2.12
			c-0.34-0.85-0.51-1.82-0.51-2.93c0-0.97,0.17-1.9,0.51-2.78c0.34-0.88,0.85-1.65,1.52-2.32c0.68-0.67,1.52-1.19,2.52-1.59
			c1.01-0.4,2.17-0.59,3.51-0.59c2.66,0,4.76,0.89,6.28,2.68c1.52,1.78,2.29,4.32,2.29,7.62c0,1.87-0.23,3.52-0.69,4.94
			c-0.46,1.42-1.12,2.61-1.97,3.56s-1.86,1.66-3.03,2.13s-2.47,0.71-3.89,0.71c-1.81,0-3.22-0.25-4.25-0.75
			C1854.73-93.46,1854.21-94.22,1854.21-95.23z M1861.22-104.17c0.43,0,0.87-0.09,1.3-0.27c0.44-0.18,0.81-0.43,1.1-0.74v-0.44
			c0-2.44-0.88-3.66-2.64-3.66c-0.74,0-1.31,0.23-1.71,0.69c-0.4,0.46-0.59,1.09-0.59,1.88c0,0.79,0.24,1.41,0.73,1.86
			C1859.9-104.4,1860.5-104.17,1861.22-104.17z"/>
		<path class="st5" d="M1893.06-103.06c0,1.81-0.27,3.39-0.81,4.74c-0.54,1.35-1.32,2.48-2.32,3.39c-1.01,0.9-2.21,1.58-3.61,2.03
			c-1.4,0.45-2.95,0.68-4.64,0.68c-0.39,0-0.82-0.01-1.32-0.03c-0.5-0.02-1.01-0.07-1.54-0.14c-0.53-0.07-1.06-0.15-1.59-0.25
			c-0.53-0.1-1.02-0.24-1.47-0.42c-1.24-0.47-1.86-1.3-1.86-2.47v-15.81c0-0.48,0.13-0.84,0.39-1.1c0.26-0.26,0.61-0.47,1.07-0.63
			c0.97-0.32,2-0.53,3.08-0.63c1.08-0.1,2.05-0.15,2.91-0.15c1.76,0,3.36,0.21,4.79,0.64c1.43,0.43,2.66,1.09,3.69,1.98
			c1.03,0.89,1.82,2.01,2.39,3.37C1892.77-106.51,1893.06-104.91,1893.06-103.06z M1886.96-102.95c0-2.03-0.47-3.56-1.42-4.59
			c-0.95-1.03-2.21-1.54-3.79-1.54c-0.32,0-0.64,0.01-0.97,0.03c-0.33,0.02-0.66,0.06-1,0.1v11.79c0.25,0.05,0.55,0.08,0.91,0.12
			c0.36,0.04,0.7,0.05,1.02,0.05c1.56,0,2.82-0.5,3.79-1.49C1886.48-99.48,1886.96-100.97,1886.96-102.95z"/>
		<path class="st5" d="M1898.37-112.5c0.54-0.56,1.3-0.85,2.27-0.85h9.75c0.16,0.25,0.3,0.56,0.42,0.95
			c0.13,0.38,0.19,0.81,0.19,1.29c0,0.83-0.18,1.44-0.54,1.83c-0.36,0.39-0.86,0.58-1.49,0.58h-6.5l-0.24,3.18
			c0.43-0.11,0.86-0.21,1.3-0.3c0.44-0.09,1-0.14,1.68-0.14c1.17,0,2.19,0.18,3.06,0.53c0.87,0.35,1.59,0.83,2.15,1.44
			c0.56,0.61,0.98,1.32,1.25,2.13c0.27,0.81,0.41,1.68,0.41,2.61c0,0.92-0.16,1.82-0.49,2.67c-0.33,0.86-0.84,1.61-1.52,2.25
			c-0.69,0.64-1.56,1.16-2.62,1.54c-1.06,0.38-2.34,0.57-3.83,0.57c-1.04,0-1.98-0.08-2.83-0.24s-1.57-0.4-2.18-0.71
			c-0.61-0.32-1.08-0.71-1.42-1.17c-0.34-0.46-0.51-1-0.51-1.61c0-0.63,0.18-1.16,0.54-1.59c0.36-0.43,0.77-0.77,1.22-1.02
			c0.63,0.47,1.31,0.89,2.03,1.24c0.72,0.35,1.64,0.53,2.74,0.53c1.06,0,1.83-0.24,2.32-0.71c0.48-0.47,0.73-1.05,0.73-1.73
			c0-0.66-0.21-1.2-0.64-1.63c-0.43-0.43-1.13-0.64-2.1-0.64c-0.61,0-1.12,0.07-1.52,0.2c-0.41,0.14-0.87,0.33-1.39,0.58
			c-1.11-0.05-1.98-0.34-2.62-0.9c-0.64-0.55-0.97-1.4-0.97-2.56c0-0.07,0-0.15,0-0.26c0-0.1,0.01-0.31,0.04-0.63l0.41-5.15
			C1897.53-111.17,1897.83-111.94,1898.37-112.5z"/>
	</g>
	<g>
		<path class="st6" d="M1723.11-16.51l-0.42,1.83h1.79c0.07,0.12,0.14,0.28,0.22,0.48c0.07,0.2,0.11,0.41,0.11,0.64
			c0,0.42-0.09,0.73-0.28,0.9c-0.19,0.18-0.44,0.27-0.75,0.27h-1.59l-0.51,2.35c-0.17,0.02-0.32,0.04-0.46,0.05
			c-0.14,0.01-0.27,0.01-0.41,0.01c-0.46,0-0.82-0.09-1.09-0.26c-0.27-0.18-0.4-0.5-0.4-0.99c0-0.18,0.01-0.37,0.05-0.57
			c0.03-0.2,0.06-0.4,0.1-0.59h-1.63l-0.51,2.35c-0.17,0.02-0.32,0.04-0.46,0.05c-0.14,0.01-0.27,0.01-0.41,0.01
			c-0.46,0-0.82-0.09-1.09-0.26c-0.27-0.18-0.4-0.5-0.4-0.99c0-0.18,0.01-0.37,0.05-0.57c0.03-0.2,0.06-0.4,0.1-0.59h-1.34
			c-0.08-0.12-0.16-0.28-0.23-0.48c-0.07-0.2-0.1-0.41-0.1-0.64c0-0.42,0.09-0.73,0.28-0.9c0.19-0.18,0.44-0.27,0.75-0.27h1.14
			l0.4-1.83h-1.75c-0.08-0.12-0.16-0.28-0.23-0.48c-0.07-0.2-0.1-0.41-0.1-0.64c0-0.42,0.09-0.72,0.28-0.9
			c0.19-0.18,0.44-0.27,0.75-0.27h1.56l0.53-2.37c0.17-0.02,0.33-0.04,0.48-0.04c0.15,0,0.29,0,0.41,0c0.45,0,0.81,0.08,1.09,0.24
			c0.28,0.16,0.42,0.49,0.42,0.97c0,0.19-0.02,0.39-0.05,0.59c-0.04,0.2-0.08,0.4-0.13,0.61h1.61l0.53-2.37
			c0.17-0.02,0.33-0.04,0.48-0.04c0.15,0,0.29,0,0.41,0c0.45,0,0.81,0.08,1.09,0.24s0.42,0.49,0.42,0.97c0,0.19-0.02,0.39-0.05,0.59
			c-0.04,0.2-0.08,0.4-0.13,0.61h1.36c0.07,0.12,0.14,0.28,0.22,0.48c0.07,0.2,0.11,0.41,0.11,0.64c0,0.42-0.09,0.72-0.28,0.9
			c-0.19,0.18-0.44,0.27-0.75,0.27H1723.11z M1718.35-14.68h1.63l0.4-1.83h-1.61L1718.35-14.68z"/>
		<path class="st6" d="M1727.95-20.56c0.3-0.3,0.71-0.45,1.23-0.45h6.02c0.08,0.13,0.16,0.31,0.23,0.53c0.07,0.22,0.1,0.45,0.1,0.7
			c0,0.46-0.1,0.79-0.3,0.99c-0.2,0.21-0.47,0.31-0.81,0.31h-3.8v2.04h3.96c0.08,0.13,0.16,0.3,0.23,0.52
			c0.07,0.21,0.11,0.44,0.11,0.7c0,0.46-0.1,0.79-0.3,0.99c-0.2,0.2-0.47,0.3-0.81,0.3h-3.16v3.87c-0.13,0.04-0.34,0.07-0.62,0.11
			c-0.28,0.04-0.56,0.05-0.85,0.05c-0.64,0-1.08-0.11-1.33-0.33c-0.25-0.22-0.37-0.61-0.37-1.18v-7.92
			C1727.5-19.85,1727.65-20.26,1727.95-20.56z"/>
		<path class="st6" d="M1738.05-20.56c0.3-0.3,0.71-0.45,1.23-0.45h6.02c0.08,0.13,0.16,0.31,0.23,0.53c0.07,0.22,0.1,0.45,0.1,0.7
			c0,0.46-0.1,0.79-0.3,0.99c-0.2,0.21-0.47,0.31-0.81,0.31h-3.8v2.04h3.96c0.08,0.13,0.16,0.3,0.23,0.52
			c0.07,0.21,0.11,0.44,0.11,0.7c0,0.46-0.1,0.79-0.3,0.99c-0.2,0.2-0.47,0.3-0.81,0.3h-3.16v3.87c-0.13,0.04-0.34,0.07-0.62,0.11
			c-0.28,0.04-0.56,0.05-0.85,0.05c-0.64,0-1.08-0.11-1.33-0.33c-0.25-0.22-0.37-0.61-0.37-1.18v-7.92
			C1737.6-19.85,1737.75-20.26,1738.05-20.56z"/>
		<path class="st6" d="M1748.14-20.56c0.3-0.3,0.71-0.45,1.23-0.45h6.02c0.08,0.13,0.16,0.31,0.23,0.53c0.07,0.22,0.1,0.45,0.1,0.7
			c0,0.46-0.1,0.79-0.3,0.99c-0.2,0.21-0.47,0.31-0.81,0.31h-3.8v2.04h3.96c0.08,0.13,0.16,0.3,0.23,0.52
			c0.07,0.21,0.11,0.44,0.11,0.7c0,0.46-0.1,0.79-0.3,0.99c-0.2,0.2-0.47,0.3-0.81,0.3h-3.16v3.87c-0.13,0.04-0.34,0.07-0.62,0.11
			c-0.28,0.04-0.56,0.05-0.85,0.05c-0.64,0-1.08-0.11-1.33-0.33c-0.25-0.22-0.37-0.61-0.37-1.18v-7.92
			C1747.69-19.85,1747.84-20.26,1748.14-20.56z"/>
		<path class="st6" d="M1758.24-20.56c0.3-0.3,0.71-0.45,1.23-0.45h6.02c0.08,0.13,0.16,0.31,0.23,0.53c0.07,0.22,0.1,0.45,0.1,0.7
			c0,0.46-0.1,0.79-0.3,0.99c-0.2,0.21-0.47,0.31-0.81,0.31h-3.8v2.04h3.96c0.08,0.13,0.16,0.3,0.23,0.52
			c0.07,0.21,0.11,0.44,0.11,0.7c0,0.46-0.1,0.79-0.3,0.99c-0.2,0.2-0.47,0.3-0.81,0.3h-3.16v3.87c-0.13,0.04-0.34,0.07-0.62,0.11
			c-0.28,0.04-0.56,0.05-0.85,0.05c-0.64,0-1.08-0.11-1.33-0.33c-0.25-0.22-0.37-0.61-0.37-1.18v-7.92
			C1757.79-19.85,1757.94-20.26,1758.24-20.56z"/>
		<path class="st6" d="M1768.33-20.56c0.3-0.3,0.71-0.45,1.23-0.45h6.02c0.08,0.13,0.16,0.31,0.23,0.53c0.07,0.22,0.1,0.45,0.1,0.7
			c0,0.46-0.1,0.79-0.3,0.99c-0.2,0.21-0.47,0.31-0.81,0.31h-3.8v2.04h3.96c0.08,0.13,0.16,0.3,0.23,0.52
			c0.07,0.21,0.11,0.44,0.11,0.7c0,0.46-0.1,0.79-0.3,0.99c-0.2,0.2-0.47,0.3-0.81,0.3h-3.16v3.87c-0.13,0.04-0.34,0.07-0.62,0.11
			c-0.28,0.04-0.56,0.05-0.85,0.05c-0.64,0-1.08-0.11-1.33-0.33c-0.25-0.22-0.37-0.61-0.37-1.18v-7.92
			C1767.88-19.85,1768.03-20.26,1768.33-20.56z"/>
		<path class="st6" d="M1778.43-20.56c0.3-0.3,0.71-0.45,1.23-0.45h6.02c0.08,0.13,0.16,0.31,0.23,0.53c0.07,0.22,0.1,0.45,0.1,0.7
			c0,0.46-0.1,0.79-0.3,0.99c-0.2,0.21-0.47,0.31-0.81,0.31h-3.8v2.04h3.96c0.08,0.13,0.16,0.3,0.23,0.52
			c0.07,0.21,0.11,0.44,0.11,0.7c0,0.46-0.1,0.79-0.3,0.99c-0.2,0.2-0.47,0.3-0.81,0.3h-3.16v3.87c-0.13,0.04-0.34,0.07-0.62,0.11
			c-0.28,0.04-0.56,0.05-0.85,0.05c-0.64,0-1.08-0.11-1.33-0.33c-0.25-0.22-0.37-0.61-0.37-1.18v-7.92
			C1777.98-19.85,1778.13-20.26,1778.43-20.56z"/>
	</g>
	<g>
		<g>
			<g>
				<path class="st2" d="M129.74,424.44v21.28c-0.81,0.22-1.95,0.42-3.42,0.61c-1.47,0.18-3.01,0.28-4.63,0.28
					c-3.46,0-5.86-0.59-7.22-1.76c-1.36-1.18-2.04-3.31-2.04-6.39v-53.47c0-1.47,0.39-2.61,1.16-3.42c0.77-0.81,1.89-1.43,3.36-1.88
					c1.18-0.44,2.52-0.81,4.02-1.1c1.51-0.29,3.05-0.55,4.63-0.77c1.58-0.22,3.16-0.37,4.74-0.44c1.58-0.07,3.07-0.11,4.47-0.11
					c10,0,17.57,2.11,22.71,6.34c5.14,4.23,7.72,10.02,7.72,17.37c0,3.53-0.64,6.74-1.93,9.65c-1.29,2.9-3.14,5.39-5.57,7.44
					c-2.43,2.06-5.39,3.64-8.88,4.74c-3.49,1.1-7.44,1.65-11.85,1.65H129.74z M135.91,410.88c3.6,0,6.47-0.83,8.6-2.48
					c2.13-1.65,3.2-4.13,3.2-7.44c0-6.54-3.9-9.81-11.69-9.81c-1.32,0-2.48,0.04-3.47,0.11c-0.99,0.07-1.97,0.18-2.92,0.33v19.3
					H135.91z"/>
				<path class="st2" d="M196,426.31c1.03,3.09,2.83,5.28,5.4,6.56c2.57,1.29,5.55,1.93,8.93,1.93c3.09,0,5.99-0.42,8.71-1.27
					c2.72-0.84,4.92-1.78,6.62-2.81c1.1,0.74,2.02,1.69,2.76,2.87c0.73,1.18,1.1,2.46,1.1,3.86c0,1.69-0.51,3.16-1.54,4.41
					c-1.03,1.25-2.44,2.3-4.24,3.14c-1.8,0.84-3.93,1.47-6.4,1.87c-2.46,0.4-5.16,0.61-8.1,0.61c-4.34,0-8.34-0.61-12.02-1.82
					c-3.68-1.21-6.84-3.01-9.48-5.4c-2.65-2.39-4.72-5.38-6.23-8.99c-1.51-3.6-2.26-7.83-2.26-12.68c0-4.7,0.75-8.78,2.26-12.24
					c1.51-3.45,3.53-6.32,6.06-8.6c2.54-2.28,5.44-3.95,8.71-5.02c3.27-1.06,6.63-1.6,10.09-1.6c3.75,0,7.18,0.57,10.31,1.71
					c3.12,1.14,5.81,2.74,8.05,4.8c2.24,2.06,3.99,4.52,5.24,7.39c1.25,2.87,1.88,5.99,1.88,9.37c0,2.35-0.63,4.12-1.88,5.29
					c-1.25,1.18-3.01,1.95-5.29,2.32L196,426.31z M206.48,403.6c-3.16,0-5.79,0.98-7.88,2.92c-2.09,1.95-3.33,4.76-3.69,8.43
					l21.06-3.42c-0.15-1.91-0.99-3.71-2.54-5.4C211.88,404.45,209.56,403.6,206.48,403.6z"/>
				<path class="st2" d="M269.21,432.76c1.32,0.92,3.16,1.38,5.51,1.38c1.1,0,2.28-0.13,3.53-0.39c1.25-0.26,2.32-0.57,3.2-0.94
					c0.66,0.73,1.21,1.58,1.65,2.54c0.44,0.96,0.66,2.06,0.66,3.31c0,2.57-1.01,4.69-3.03,6.34c-2.02,1.65-5.53,2.48-10.53,2.48
					c-6.17,0-10.99-1.42-14.44-4.25c-3.45-2.83-5.18-7.44-5.18-13.84v-49.5c0.81-0.22,1.88-0.46,3.2-0.72
					c1.32-0.26,2.76-0.39,4.3-0.39c3.23,0,5.57,0.57,7,1.71c1.43,1.14,2.15,3.22,2.15,6.23v7.17h15.21c0.37,0.74,0.73,1.67,1.1,2.81
					c0.37,1.14,0.55,2.33,0.55,3.58c0,2.35-0.53,4.04-1.6,5.07c-1.07,1.03-2.44,1.54-4.13,1.54h-11.14v21.39
					C267.23,430.36,267.89,431.85,269.21,432.76z"/>
				<path class="st2" d="M345.95,430.28c0,5.44-2.02,9.69-6.06,12.74c-4.04,3.05-10,4.58-17.86,4.58c-3.09,0-5.9-0.22-8.43-0.66
					c-2.54-0.44-4.72-1.1-6.56-1.99c-1.84-0.88-3.27-1.98-4.3-3.31c-1.03-1.32-1.54-2.87-1.54-4.63c0-1.62,0.33-2.99,0.99-4.13
					c0.66-1.14,1.51-2.08,2.54-2.81c2.13,1.25,4.56,2.35,7.28,3.31c2.72,0.96,5.88,1.43,9.48,1.43c5.22,0,7.83-1.47,7.83-4.41
					c0-1.25-0.46-2.21-1.38-2.87c-0.92-0.66-2.48-1.25-4.69-1.76l-4.41-0.99c-6.03-1.25-10.51-3.18-13.45-5.79
					c-2.94-2.61-4.41-6.26-4.41-10.97c0-5.22,2.11-9.35,6.34-12.4c4.23-3.05,9.9-4.58,17.03-4.58c2.65,0,5.15,0.2,7.5,0.61
					c2.35,0.4,4.37,1.01,6.06,1.82c1.69,0.81,3.03,1.82,4.02,3.03c0.99,1.21,1.49,2.63,1.49,4.25c0,1.47-0.29,2.77-0.88,3.91
					c-0.59,1.14-1.36,2.08-2.32,2.81c-0.59-0.37-1.45-0.77-2.59-1.21c-1.14-0.44-2.37-0.84-3.69-1.21
					c-1.32-0.37-2.72-0.66-4.19-0.88c-1.47-0.22-2.83-0.33-4.08-0.33c-2.57,0-4.58,0.35-6.01,1.05c-1.43,0.7-2.15,1.75-2.15,3.14
					c0,1.03,0.4,1.84,1.21,2.43c0.81,0.59,2.28,1.14,4.41,1.65l4.19,0.99c6.69,1.47,11.47,3.6,14.33,6.39
					C344.52,422.27,345.95,425.87,345.95,430.28z"/>
				<path class="st2" d="M425.22,435.69c0,2.13-0.4,3.71-1.21,4.74c-0.81,1.03-2.09,2.06-3.86,3.09c-1.03,0.59-2.28,1.14-3.75,1.65
					c-1.47,0.51-3.11,0.95-4.91,1.32c-1.8,0.37-3.68,0.66-5.62,0.88c-1.95,0.22-3.88,0.33-5.79,0.33c-5.29,0-10.2-0.68-14.72-2.04
					c-4.52-1.36-8.47-3.47-11.85-6.34c-3.38-2.87-6.03-6.5-7.94-10.91c-1.91-4.41-2.87-9.7-2.87-15.88c0-5.81,0.97-10.93,2.92-15.38
					c1.95-4.45,4.59-8.16,7.94-11.14c3.34-2.98,7.28-5.22,11.8-6.73c4.52-1.51,9.39-2.26,14.61-2.26c6.84,0,12.27,1.07,16.32,3.2
					c4.04,2.13,6.06,4.85,6.06,8.16c0,1.69-0.44,3.18-1.32,4.47c-0.88,1.29-1.91,2.3-3.09,3.03c-1.84-1.17-4.13-2.28-6.89-3.31
					c-2.76-1.03-6.01-1.54-9.76-1.54c-3.09,0-5.9,0.5-8.43,1.49c-2.54,0.99-4.72,2.41-6.56,4.24c-1.84,1.84-3.27,4.08-4.3,6.73
					c-1.03,2.65-1.54,5.62-1.54,8.93c0,3.6,0.5,6.74,1.49,9.43c0.99,2.68,2.37,4.91,4.13,6.67c1.76,1.76,3.88,3.09,6.34,3.97
					c2.46,0.88,5.13,1.32,7.99,1.32c1.76,0,3.36-0.18,4.8-0.55c1.43-0.37,2.55-0.73,3.36-1.1V419.7H395.9
					c-0.44-0.73-0.85-1.69-1.21-2.87c-0.37-1.18-0.55-2.43-0.55-3.75c0-2.35,0.55-4.08,1.65-5.18c1.1-1.1,2.54-1.65,4.3-1.65h18.52
					c2.06,0,3.67,0.57,4.85,1.71c1.18,1.14,1.76,2.74,1.76,4.8V435.69z"/>
				<path class="st2" d="M462.93,445.72c-0.74,0.22-1.76,0.42-3.09,0.61c-1.32,0.18-2.79,0.28-4.41,0.28c-3.31,0-5.7-0.53-7.17-1.6
					c-1.47-1.06-2.2-3.14-2.2-6.23v-33.63c0-2.06,0.51-3.82,1.54-5.29c1.03-1.47,2.46-2.76,4.3-3.86c2.43-1.47,5.35-2.63,8.77-3.47
					c3.42-0.84,7-1.27,10.75-1.27c7.64,0,11.47,2.57,11.47,7.72c0,1.25-0.18,2.39-0.55,3.42c-0.37,1.03-0.77,1.91-1.21,2.65
					c-1.69-0.37-3.75-0.55-6.17-0.55c-2.13,0-4.26,0.26-6.39,0.77c-2.13,0.51-4.01,1.21-5.62,2.09V445.72z"/>
				<path class="st2" d="M607.03,414.3c-0.66,2.72-1.4,5.51-2.2,8.38c-0.81,2.87-1.62,5.66-2.43,8.38c-0.81,2.72-1.58,5.22-2.31,7.5
					c-0.74,2.28-1.32,4.15-1.76,5.62c-1.99,1.76-5.15,2.65-9.48,2.65c-2.65,0-4.96-0.37-6.95-1.1c-1.98-0.73-3.31-1.84-3.97-3.31
					c-0.81-1.76-1.76-4.56-2.87-8.38c-1.1-3.82-2.19-8.01-3.25-12.57c-1.07-4.56-2.08-9.19-3.03-13.89
					c-0.96-4.7-1.73-8.82-2.32-12.35c0.88-0.95,2.11-1.78,3.69-2.48c1.58-0.7,3.29-1.05,5.13-1.05c2.35,0,4.26,0.53,5.73,1.6
					c1.47,1.07,2.39,2.89,2.76,5.46c0.73,5.15,1.38,9.56,1.93,13.23c0.55,3.68,1.05,6.8,1.49,9.37c0.44,2.57,0.83,4.65,1.16,6.23
					c0.33,1.58,0.57,2.81,0.72,3.69h0.44c0.29-1.18,0.73-2.94,1.32-5.29c0.59-2.35,1.29-5.02,2.09-7.99
					c0.81-2.98,1.67-6.17,2.59-9.59c0.92-3.42,1.82-6.85,2.7-10.31c1.25-0.73,2.55-1.3,3.92-1.71c1.36-0.4,2.99-0.61,4.91-0.61
					c2.35,0,4.35,0.39,6.01,1.16c1.65,0.77,2.7,1.93,3.14,3.47c0.96,3.31,1.87,6.56,2.76,9.76c0.88,3.2,1.69,6.16,2.43,8.88
					c0.73,2.72,1.38,5.15,1.93,7.28c0.55,2.13,0.97,3.79,1.27,4.96h0.55c1.03-5.81,2.02-11.89,2.98-18.25
					c0.95-6.36,1.84-12.81,2.65-19.35c1.17-0.66,2.43-1.16,3.75-1.49c1.33-0.33,2.65-0.5,3.97-0.5c2.28,0,4.17,0.5,5.68,1.49
					c1.5,0.99,2.26,2.7,2.26,5.13c0,1.1-0.2,2.83-0.61,5.18c-0.4,2.35-0.92,5-1.54,7.94c-0.63,2.94-1.34,6.05-2.15,9.32
					c-0.81,3.27-1.62,6.41-2.43,9.43c-0.81,3.02-1.6,5.77-2.37,8.27c-0.77,2.5-1.42,4.41-1.93,5.73c-0.81,0.81-2.17,1.45-4.08,1.93
					c-1.91,0.48-3.97,0.72-6.17,0.72c-5.59,0-8.86-1.36-9.81-4.08c-0.52-1.47-1.14-3.27-1.87-5.4c-0.74-2.13-1.49-4.47-2.26-7
					c-0.77-2.54-1.53-5.18-2.26-7.94S607.55,416.94,607.03,414.3z"/>
				<path class="st2" d="M664.37,438.11c0-2.79,0.86-5.09,2.59-6.89c1.73-1.8,4.13-2.7,7.22-2.7c3.01,0,5.38,0.9,7.11,2.7
					c1.73,1.8,2.59,4.1,2.59,6.89c0,2.79-0.86,5.09-2.59,6.89c-1.73,1.8-4.1,2.7-7.11,2.7c-3.09,0-5.5-0.9-7.22-2.7
					C665.23,443.2,664.37,440.91,664.37,438.11z M682.89,383.75c0,1.76-0.04,4.19-0.11,7.28c-0.07,3.09-0.2,6.41-0.39,9.98
					c-0.18,3.57-0.44,7.13-0.77,10.69c-0.33,3.57-0.72,6.74-1.16,9.54c-0.59,0.51-1.54,0.9-2.87,1.16
					c-1.32,0.26-2.46,0.39-3.42,0.39c-1.91,0-3.51-0.31-4.8-0.94c-1.29-0.62-2.11-1.78-2.48-3.47c-0.3-1.76-0.57-4.32-0.83-7.66
					c-0.26-3.34-0.46-6.93-0.61-10.75c-0.15-3.82-0.28-7.64-0.39-11.47c-0.11-3.82-0.17-7.17-0.17-10.03
					c1.32-0.81,2.81-1.41,4.46-1.82c1.66-0.4,3.32-0.61,5.02-0.61c2.65,0,4.72,0.64,6.23,1.93
					C682.14,379.25,682.89,381.18,682.89,383.75z"/>
			</g>
			<g>
				<ellipse class="st4" cx="497.45" cy="402.48" rx="8.29" ry="8.52"/>
				<ellipse class="st4" cx="553.7" cy="402.36" rx="8.29" ry="8.52"/>
				<ellipse class="st4" cx="537.15" cy="381.39" rx="8.29" ry="8.52"/>
				<ellipse class="st4" cx="514.04" cy="381.39" rx="8.29" ry="8.52"/>
				<path class="st4" d="M552.26,426.55c0-5.88-3.59-10.89-8.64-12.84c-6.33-3.51-6.54-10.3-6.54-10.3h-0.01
					c-0.65-5.93-5.54-10.53-11.47-10.53s-10.82,4.61-11.47,10.53h0c-1.02,7.95-6.97,10.32-6.97,10.32l-0.96,0.41
					c-4.37,2.25-7.38,6.9-7.38,12.27c0,7.57,5.97,13.72,13.33,13.72c2.49,0,4.83-0.71,6.82-1.93l0,0c6.89-4.15,12.84,0,12.84,0
					l0.02-0.04c2.06,1.34,4.5,2.12,7.12,2.12C546.29,440.27,552.26,434.13,552.26,426.55z M533.52,431.51
					c-0.48,0.67-1.03,1.25-1.62,1.75c-1.69,1.46-3.82,2.19-6.38,2.19c-3.19,0-5.7-1.17-7.54-3.47c-0.11-0.14-0.24-0.27-0.34-0.42
					c-0.45-0.61-0.84-1.3-1.18-2.05c-0.05-0.12-0.1-0.25-0.15-0.37c-0.21-0.5-0.39-1.02-0.55-1.58c-0.2-0.66-0.36-1.36-0.49-2.09
					c0-0.02-0.01-0.04-0.01-0.07c-0.26-1.46-0.44-3.02-0.44-4.77c0-4.83,0.92-8.52,2.76-11.08c0.48-0.67,1.03-1.25,1.62-1.75
					c1.69-1.46,3.82-2.19,6.38-2.19c3.19,0,5.7,1.17,7.55,3.48c0.11,0.14,0.23,0.26,0.33,0.41c0.45,0.61,0.84,1.3,1.18,2.05
					c0.05,0.12,0.1,0.25,0.15,0.37c0.21,0.5,0.39,1.02,0.55,1.58c0.2,0.65,0.36,1.36,0.49,2.08c0,0.02,0.01,0.05,0.01,0.07
					c0.26,1.46,0.44,3.02,0.44,4.77C536.28,425.25,535.36,428.95,533.52,431.51z"/>
			</g>
		</g>
		<g>
			<path class="st5" d="M494.78,395.16c-1.35,1.13-2.48,2.4-3.19,3.89c-0.36,0.74-0.65,1.52-0.81,2.35
				c-0.2,0.82-0.24,1.67-0.33,2.56c-0.27-0.84-0.42-1.75-0.34-2.65c0.03-0.91,0.31-1.81,0.7-2.63c0.41-0.82,0.97-1.57,1.65-2.17
				C493.14,395.91,493.92,395.42,494.78,395.16z"/>
			<path class="st5" d="M511.68,374.08c-1.35,1.13-2.48,2.4-3.19,3.89c-0.36,0.74-0.65,1.52-0.81,2.35
				c-0.2,0.82-0.24,1.67-0.33,2.56c-0.27-0.84-0.42-1.75-0.34-2.65c0.03-0.91,0.31-1.81,0.7-2.63c0.41-0.82,0.97-1.57,1.65-2.17
				C510.04,374.82,510.82,374.33,511.68,374.08z"/>
			<path class="st5" d="M534.94,374.45c-1.35,1.13-2.48,2.4-3.19,3.89c-0.36,0.74-0.65,1.52-0.81,2.35
				c-0.2,0.82-0.24,1.67-0.33,2.56c-0.27-0.84-0.42-1.75-0.34-2.65c0.03-0.91,0.31-1.81,0.7-2.63c0.41-0.82,0.97-1.57,1.65-2.17
				C533.3,375.19,534.09,374.7,534.94,374.45z"/>
			<path class="st5" d="M551.26,395.16c-1.35,1.13-2.48,2.4-3.19,3.89c-0.36,0.74-0.65,1.52-0.81,2.35
				c-0.2,0.82-0.24,1.67-0.33,2.56c-0.27-0.84-0.42-1.75-0.34-2.65c0.03-0.91,0.31-1.81,0.7-2.63c0.41-0.82,0.97-1.57,1.65-2.17
				C549.62,395.91,550.4,395.42,551.26,395.16z"/>
			<path class="st5" d="M500.43,428.4c-0.15-1.87,0.13-3.76,0.69-5.58c0.58-1.81,1.52-3.53,2.85-4.93c0.66-0.7,1.42-1.31,2.25-1.8
				c0.82-0.52,1.75-0.81,2.56-1.19c0.83-0.38,1.64-0.83,2.4-1.33c0.75-0.52,1.49-1.11,1.9-1.95c-0.28,0.91-1,1.6-1.71,2.21
				c-0.72,0.61-1.53,1.11-2.36,1.56c-0.4,0.23-0.86,0.43-1.25,0.64c-0.4,0.21-0.78,0.45-1.15,0.7c-0.74,0.5-1.42,1.09-2.04,1.75
				c-1.21,1.32-2.14,2.89-2.8,4.59c-0.35,0.84-0.62,1.72-0.84,2.61C500.72,426.56,500.55,427.47,500.43,428.4z"/>
			<path class="st5" d="M515.38,406.35c-0.13-1.52,0.06-3.07,0.52-4.54c0.45-1.48,1.21-2.88,2.23-4.07
				c1.03-1.18,2.29-2.17,3.74-2.76c0.69-0.37,1.46-0.51,2.19-0.73c0.75-0.15,1.52-0.22,2.27-0.29c-0.72,0.26-1.46,0.41-2.15,0.69
				c-0.68,0.3-1.39,0.53-2.01,0.93c-1.31,0.67-2.44,1.62-3.38,2.72c-0.96,1.09-1.7,2.37-2.26,3.73
				C515.99,403.4,515.58,404.85,515.38,406.35z"/>
		</g>
	</g>
	<g>
		<g>
			<g>
				<ellipse class="st4" cx="883.59" cy="221.87" rx="37.66" ry="38.71"/>
				<ellipse class="st4" cx="1139.3" cy="221.3" rx="37.66" ry="38.71"/>
				<ellipse class="st4" cx="1064.07" cy="126.02" rx="37.66" ry="38.71"/>
				<ellipse class="st4" cx="958.99" cy="126.02" rx="37.66" ry="38.71"/>
				<path class="st4" d="M1132.72,331.3c0-26.72-16.34-49.5-39.29-58.37c-28.77-15.97-29.73-46.84-29.73-46.84h-0.06
					c-2.96-26.94-25.17-47.88-52.15-47.88s-49.18,20.94-52.15,47.88h0c-4.65,36.15-31.7,46.91-31.7,46.91l-4.37,1.86
					c-19.88,10.23-33.54,31.36-33.54,55.79c0,34.43,27.12,62.34,60.58,62.34c11.34,0,21.95-3.21,31.02-8.79l0,0
					c31.32-18.87,58.35,0,58.35,0l0.1-0.2c9.36,6.1,20.45,9.64,32.35,9.64C1105.6,393.64,1132.72,365.73,1132.72,331.3z
					 M1047.56,353.8c-2.2,3.06-4.67,5.7-7.37,7.96c-7.7,6.64-17.36,9.97-28.99,9.97c-14.49,0-25.89-5.3-34.29-15.76
					c-0.52-0.64-1.07-1.23-1.57-1.91c-2.03-2.79-3.8-5.91-5.34-9.34c-0.25-0.53-0.44-1.12-0.68-1.67c-0.93-2.25-1.75-4.66-2.48-7.17
					c-0.91-2.98-1.62-6.17-2.23-9.49c-0.02-0.1-0.04-0.2-0.05-0.3c-1.2-6.64-1.99-13.73-1.99-21.7c0-21.94,4.18-38.74,12.53-50.37
					c2.2-3.07,4.67-5.7,7.38-7.96c7.7-6.63,17.36-9.96,28.98-9.96c14.51,0,25.93,5.32,34.33,15.81c0.51,0.62,1.04,1.2,1.52,1.86
					c2.03,2.79,3.8,5.91,5.34,9.33c0.25,0.54,0.44,1.13,0.68,1.68c0.93,2.25,1.75,4.65,2.49,7.17c0.9,2.97,1.62,6.16,2.22,9.46
					c0.02,0.11,0.04,0.22,0.06,0.33c1.2,6.64,1.99,13.72,1.99,21.69C1060.08,325.37,1055.91,342.17,1047.56,353.8z"/>
			</g>
		</g>
		<g>
			<path class="st5" d="M871.47,188.61c-6.15,5.14-11.26,10.91-14.52,17.7c-1.65,3.36-2.95,6.92-3.67,10.66
				c-0.89,3.73-1.08,7.6-1.49,11.65c-1.21-3.83-1.89-7.94-1.53-12.06c0.15-4.15,1.42-8.22,3.2-11.98c1.85-3.74,4.4-7.14,7.5-9.86
				C864.01,191.98,867.58,189.77,871.47,188.61z"/>
			<path class="st5" d="M948.29,92.75c-6.15,5.14-11.26,10.91-14.52,17.7c-1.65,3.36-2.95,6.92-3.67,10.66
				c-0.89,3.73-1.08,7.6-1.49,11.65c-1.21-3.83-1.89-7.94-1.53-12.06c0.15-4.15,1.42-8.22,3.2-11.98c1.85-3.74,4.4-7.14,7.5-9.86
				C940.83,96.13,944.4,93.92,948.29,92.75z"/>
			<path class="st5" d="M1054.02,94.45c-6.15,5.14-11.26,10.91-14.52,17.7c-1.65,3.36-2.95,6.92-3.67,10.66
				c-0.89,3.73-1.09,7.6-1.49,11.65c-1.21-3.83-1.89-7.94-1.53-12.06c0.15-4.15,1.42-8.22,3.2-11.98c1.85-3.74,4.4-7.14,7.5-9.86
				C1046.57,97.82,1050.14,95.61,1054.02,94.45z"/>
			<path class="st5" d="M1128.18,188.61c-6.15,5.14-11.26,10.91-14.52,17.7c-1.65,3.36-2.95,6.92-3.67,10.66
				c-0.89,3.73-1.08,7.6-1.49,11.65c-1.21-3.83-1.89-7.94-1.53-12.06c0.15-4.15,1.42-8.22,3.2-11.98c1.85-3.74,4.4-7.14,7.5-9.86
				C1120.72,191.98,1124.29,189.77,1128.18,188.61z"/>
			<path class="st5" d="M897.17,339.67c-0.67-8.49,0.6-17.11,3.13-25.35c2.61-8.21,6.9-16.07,12.97-22.41
				c3-3.19,6.46-5.95,10.21-8.19c3.72-2.36,7.96-3.68,11.64-5.42c3.79-1.75,7.44-3.77,10.93-6.05c3.4-2.35,6.76-5.04,8.65-8.86
				c-1.29,4.12-4.54,7.29-7.75,10.06c-3.28,2.78-6.96,5.03-10.71,7.08c-1.83,1.04-3.91,1.94-5.68,2.91
				c-1.8,0.95-3.53,2.05-5.24,3.17c-3.38,2.29-6.48,4.97-9.25,7.94c-5.52,5.99-9.73,13.16-12.74,20.86
				c-1.58,3.83-2.83,7.81-3.8,11.88C898.46,331.33,897.7,335.46,897.17,339.67z"/>
			<path class="st5" d="M965.1,239.47c-0.6-6.89,0.29-13.95,2.36-20.66c2.05-6.73,5.52-13.09,10.16-18.5
				c4.66-5.35,10.43-9.88,16.99-12.54c3.13-1.67,6.63-2.34,9.97-3.31c3.41-0.69,6.9-0.98,10.31-1.3c-3.28,1.19-6.63,1.84-9.77,3.13
				c-3.1,1.38-6.32,2.39-9.16,4.21c-5.94,3.05-11.1,7.36-15.38,12.35c-4.35,4.96-7.73,10.77-10.26,16.97
				C967.87,226.06,966.01,232.63,965.1,239.47z"/>
		</g>
	</g>
	<g>
		<g>
			<g>
				<path class="st5" d="M129.74,140.43v21.28c-0.81,0.22-1.95,0.42-3.42,0.61c-1.47,0.18-3.01,0.28-4.63,0.28
					c-3.46,0-5.86-0.59-7.22-1.76c-1.36-1.18-2.04-3.31-2.04-6.39v-53.47c0-1.47,0.39-2.61,1.16-3.42c0.77-0.81,1.89-1.43,3.36-1.88
					c1.18-0.44,2.52-0.81,4.02-1.1c1.51-0.29,3.05-0.55,4.63-0.77c1.58-0.22,3.16-0.37,4.74-0.44c1.58-0.07,3.07-0.11,4.47-0.11
					c10,0,17.57,2.11,22.71,6.34c5.14,4.23,7.72,10.02,7.72,17.37c0,3.53-0.64,6.74-1.93,9.65c-1.29,2.9-3.14,5.39-5.57,7.44
					c-2.43,2.06-5.39,3.64-8.88,4.74c-3.49,1.1-7.44,1.65-11.85,1.65H129.74z M135.91,126.87c3.6,0,6.47-0.83,8.6-2.48
					c2.13-1.65,3.2-4.13,3.2-7.44c0-6.54-3.9-9.81-11.69-9.81c-1.32,0-2.48,0.04-3.47,0.11c-0.99,0.07-1.97,0.18-2.92,0.33v19.3
					H135.91z"/>
				<path class="st5" d="M196,142.3c1.03,3.09,2.83,5.28,5.4,6.56c2.57,1.29,5.55,1.93,8.93,1.93c3.09,0,5.99-0.42,8.71-1.27
					c2.72-0.84,4.92-1.78,6.62-2.81c1.1,0.74,2.02,1.69,2.76,2.87c0.73,1.18,1.1,2.46,1.1,3.86c0,1.69-0.51,3.16-1.54,4.41
					c-1.03,1.25-2.44,2.3-4.24,3.14c-1.8,0.84-3.93,1.47-6.4,1.87c-2.46,0.4-5.16,0.61-8.1,0.61c-4.34,0-8.34-0.61-12.02-1.82
					c-3.68-1.21-6.84-3.01-9.48-5.4c-2.65-2.39-4.72-5.38-6.23-8.99c-1.51-3.6-2.26-7.83-2.26-12.68c0-4.7,0.75-8.78,2.26-12.24
					c1.51-3.45,3.53-6.32,6.06-8.6c2.54-2.28,5.44-3.95,8.71-5.02c3.27-1.06,6.63-1.6,10.09-1.6c3.75,0,7.18,0.57,10.31,1.71
					c3.12,1.14,5.81,2.74,8.05,4.8c2.24,2.06,3.99,4.52,5.24,7.39c1.25,2.87,1.88,5.99,1.88,9.37c0,2.35-0.63,4.12-1.88,5.29
					c-1.25,1.18-3.01,1.95-5.29,2.32L196,142.3z M206.48,119.59c-3.16,0-5.79,0.98-7.88,2.92c-2.09,1.95-3.33,4.76-3.69,8.43
					l21.06-3.42c-0.15-1.91-0.99-3.71-2.54-5.4C211.88,120.43,209.56,119.59,206.48,119.59z"/>
				<path class="st5" d="M269.21,148.75c1.32,0.92,3.16,1.38,5.51,1.38c1.1,0,2.28-0.13,3.53-0.39c1.25-0.26,2.32-0.57,3.2-0.94
					c0.66,0.73,1.21,1.58,1.65,2.54c0.44,0.96,0.66,2.06,0.66,3.31c0,2.57-1.01,4.69-3.03,6.34c-2.02,1.65-5.53,2.48-10.53,2.48
					c-6.17,0-10.99-1.42-14.44-4.25c-3.45-2.83-5.18-7.44-5.18-13.84v-49.5c0.81-0.22,1.88-0.46,3.2-0.72
					c1.32-0.26,2.76-0.39,4.3-0.39c3.23,0,5.57,0.57,7,1.71c1.43,1.14,2.15,3.22,2.15,6.23v7.17h15.21c0.37,0.74,0.73,1.67,1.1,2.81
					c0.37,1.14,0.55,2.33,0.55,3.58c0,2.35-0.53,4.04-1.6,5.07c-1.07,1.03-2.44,1.54-4.13,1.54h-11.14v21.39
					C267.23,146.35,267.89,147.83,269.21,148.75z"/>
				<path class="st5" d="M345.95,146.27c0,5.44-2.02,9.69-6.06,12.74c-4.04,3.05-10,4.58-17.86,4.58c-3.09,0-5.9-0.22-8.43-0.66
					c-2.54-0.44-4.72-1.1-6.56-1.99c-1.84-0.88-3.27-1.98-4.3-3.31c-1.03-1.32-1.54-2.87-1.54-4.63c0-1.62,0.33-2.99,0.99-4.13
					c0.66-1.14,1.51-2.08,2.54-2.81c2.13,1.25,4.56,2.35,7.28,3.31c2.72,0.96,5.88,1.43,9.48,1.43c5.22,0,7.83-1.47,7.83-4.41
					c0-1.25-0.46-2.21-1.38-2.87c-0.92-0.66-2.48-1.25-4.69-1.76l-4.41-0.99c-6.03-1.25-10.51-3.18-13.45-5.79
					c-2.94-2.61-4.41-6.26-4.41-10.97c0-5.22,2.11-9.35,6.34-12.4c4.23-3.05,9.9-4.58,17.03-4.58c2.65,0,5.15,0.2,7.5,0.61
					c2.35,0.4,4.37,1.01,6.06,1.82c1.69,0.81,3.03,1.82,4.02,3.03c0.99,1.21,1.49,2.63,1.49,4.25c0,1.47-0.29,2.77-0.88,3.91
					c-0.59,1.14-1.36,2.08-2.32,2.81c-0.59-0.37-1.45-0.77-2.59-1.21c-1.14-0.44-2.37-0.84-3.69-1.21
					c-1.32-0.37-2.72-0.66-4.19-0.88c-1.47-0.22-2.83-0.33-4.08-0.33c-2.57,0-4.58,0.35-6.01,1.05c-1.43,0.7-2.15,1.75-2.15,3.14
					c0,1.03,0.4,1.84,1.21,2.43c0.81,0.59,2.28,1.14,4.41,1.65l4.19,0.99c6.69,1.47,11.47,3.6,14.33,6.39
					C344.52,138.26,345.95,141.86,345.95,146.27z"/>
				<path class="st5" d="M425.22,151.67c0,2.13-0.4,3.71-1.21,4.74c-0.81,1.03-2.09,2.06-3.86,3.09c-1.03,0.59-2.28,1.14-3.75,1.65
					c-1.47,0.51-3.11,0.95-4.91,1.32c-1.8,0.37-3.68,0.66-5.62,0.88c-1.95,0.22-3.88,0.33-5.79,0.33c-5.29,0-10.2-0.68-14.72-2.04
					c-4.52-1.36-8.47-3.47-11.85-6.34c-3.38-2.87-6.03-6.5-7.94-10.91c-1.91-4.41-2.87-9.7-2.87-15.88c0-5.81,0.97-10.93,2.92-15.38
					c1.95-4.45,4.59-8.16,7.94-11.14c3.34-2.98,7.28-5.22,11.8-6.73c4.52-1.51,9.39-2.26,14.61-2.26c6.84,0,12.27,1.07,16.32,3.2
					c4.04,2.13,6.06,4.85,6.06,8.16c0,1.69-0.44,3.18-1.32,4.47c-0.88,1.29-1.91,2.3-3.09,3.03c-1.84-1.17-4.13-2.28-6.89-3.31
					c-2.76-1.03-6.01-1.54-9.76-1.54c-3.09,0-5.9,0.5-8.43,1.49c-2.54,0.99-4.72,2.41-6.56,4.24c-1.84,1.84-3.27,4.08-4.3,6.73
					c-1.03,2.65-1.54,5.62-1.54,8.93c0,3.6,0.5,6.74,1.49,9.43c0.99,2.68,2.37,4.91,4.13,6.67c1.76,1.76,3.88,3.09,6.34,3.97
					c2.46,0.88,5.13,1.32,7.99,1.32c1.76,0,3.36-0.18,4.8-0.55c1.43-0.37,2.55-0.73,3.36-1.1v-12.46H395.9
					c-0.44-0.73-0.85-1.69-1.21-2.87c-0.37-1.18-0.55-2.43-0.55-3.75c0-2.35,0.55-4.08,1.65-5.18c1.1-1.1,2.54-1.65,4.3-1.65h18.52
					c2.06,0,3.67,0.57,4.85,1.71c1.18,1.14,1.76,2.74,1.76,4.8V151.67z"/>
				<path class="st5" d="M462.93,161.71c-0.74,0.22-1.76,0.42-3.09,0.61c-1.32,0.18-2.79,0.28-4.41,0.28c-3.31,0-5.7-0.53-7.17-1.6
					c-1.47-1.06-2.2-3.14-2.2-6.23v-33.63c0-2.06,0.51-3.82,1.54-5.29c1.03-1.47,2.46-2.76,4.3-3.86c2.43-1.47,5.35-2.63,8.77-3.47
					c3.42-0.84,7-1.27,10.75-1.27c7.64,0,11.47,2.57,11.47,7.72c0,1.25-0.18,2.39-0.55,3.42c-0.37,1.03-0.77,1.91-1.21,2.65
					c-1.69-0.37-3.75-0.55-6.17-0.55c-2.13,0-4.26,0.26-6.39,0.77c-2.13,0.51-4.01,1.21-5.62,2.09V161.71z"/>
				<path class="st5" d="M607.03,130.28c-0.66,2.72-1.4,5.51-2.2,8.38c-0.81,2.87-1.62,5.66-2.43,8.38
					c-0.81,2.72-1.58,5.22-2.31,7.5c-0.74,2.28-1.32,4.15-1.76,5.62c-1.99,1.76-5.15,2.65-9.48,2.65c-2.65,0-4.96-0.37-6.95-1.1
					c-1.98-0.73-3.31-1.84-3.97-3.31c-0.81-1.76-1.76-4.56-2.87-8.38c-1.1-3.82-2.19-8.01-3.25-12.57
					c-1.07-4.56-2.08-9.19-3.03-13.89c-0.96-4.7-1.73-8.82-2.32-12.35c0.88-0.95,2.11-1.78,3.69-2.48c1.58-0.7,3.29-1.05,5.13-1.05
					c2.35,0,4.26,0.53,5.73,1.6c1.47,1.07,2.39,2.89,2.76,5.46c0.73,5.15,1.38,9.56,1.93,13.23c0.55,3.68,1.05,6.8,1.49,9.37
					c0.44,2.57,0.83,4.65,1.16,6.23c0.33,1.58,0.57,2.81,0.72,3.69h0.44c0.29-1.18,0.73-2.94,1.32-5.29
					c0.59-2.35,1.29-5.02,2.09-7.99c0.81-2.98,1.67-6.17,2.59-9.59c0.92-3.42,1.82-6.85,2.7-10.31c1.25-0.73,2.55-1.3,3.92-1.71
					c1.36-0.4,2.99-0.61,4.91-0.61c2.35,0,4.35,0.39,6.01,1.16c1.65,0.77,2.7,1.93,3.14,3.47c0.96,3.31,1.87,6.56,2.76,9.76
					c0.88,3.2,1.69,6.16,2.43,8.88c0.73,2.72,1.38,5.15,1.93,7.28c0.55,2.13,0.97,3.79,1.27,4.96h0.55
					c1.03-5.81,2.02-11.89,2.98-18.25c0.95-6.36,1.84-12.81,2.65-19.35c1.17-0.66,2.43-1.16,3.75-1.49c1.33-0.33,2.65-0.5,3.97-0.5
					c2.28,0,4.17,0.5,5.68,1.49c1.5,0.99,2.26,2.7,2.26,5.13c0,1.1-0.2,2.83-0.61,5.18c-0.4,2.35-0.92,5-1.54,7.94
					c-0.63,2.94-1.34,6.05-2.15,9.32c-0.81,3.27-1.62,6.41-2.43,9.43c-0.81,3.02-1.6,5.77-2.37,8.27c-0.77,2.5-1.42,4.41-1.93,5.73
					c-0.81,0.81-2.17,1.45-4.08,1.93c-1.91,0.48-3.97,0.72-6.17,0.72c-5.59,0-8.86-1.36-9.81-4.08c-0.52-1.47-1.14-3.27-1.87-5.4
					c-0.74-2.13-1.49-4.47-2.26-7c-0.77-2.54-1.53-5.18-2.26-7.94S607.55,132.93,607.03,130.28z"/>
				<path class="st5" d="M664.37,154.1c0-2.79,0.86-5.09,2.59-6.89c1.73-1.8,4.13-2.7,7.22-2.7c3.01,0,5.38,0.9,7.11,2.7
					c1.73,1.8,2.59,4.1,2.59,6.89c0,2.79-0.86,5.09-2.59,6.89c-1.73,1.8-4.1,2.7-7.11,2.7c-3.09,0-5.5-0.9-7.22-2.7
					C665.23,159.19,664.37,156.89,664.37,154.1z M682.89,99.74c0,1.76-0.04,4.19-0.11,7.28c-0.07,3.09-0.2,6.41-0.39,9.98
					c-0.18,3.57-0.44,7.13-0.77,10.69c-0.33,3.57-0.72,6.74-1.16,9.54c-0.59,0.51-1.54,0.9-2.87,1.16
					c-1.32,0.26-2.46,0.39-3.42,0.39c-1.91,0-3.51-0.31-4.8-0.94c-1.29-0.62-2.11-1.78-2.48-3.47c-0.3-1.76-0.57-4.32-0.83-7.66
					c-0.26-3.34-0.46-6.93-0.61-10.75c-0.15-3.82-0.28-7.64-0.39-11.47c-0.11-3.82-0.17-7.17-0.17-10.03
					c1.32-0.81,2.81-1.41,4.46-1.82c1.66-0.4,3.32-0.61,5.02-0.61c2.65,0,4.72,0.64,6.23,1.93
					C682.14,95.24,682.89,97.17,682.89,99.74z"/>
			</g>
			<g>
				<ellipse class="st4" cx="497.45" cy="118.47" rx="8.29" ry="8.52"/>
				<ellipse class="st4" cx="553.7" cy="118.34" rx="8.29" ry="8.52"/>
				<ellipse class="st4" cx="537.15" cy="97.38" rx="8.29" ry="8.52"/>
				<ellipse class="st4" cx="514.04" cy="97.38" rx="8.29" ry="8.52"/>
				<path class="st4" d="M552.26,142.54c0-5.88-3.59-10.89-8.64-12.84c-6.33-3.51-6.54-10.3-6.54-10.3h-0.01
					c-0.65-5.93-5.54-10.53-11.47-10.53s-10.82,4.61-11.47,10.53h0c-1.02,7.95-6.97,10.32-6.97,10.32l-0.96,0.41
					c-4.37,2.25-7.38,6.9-7.38,12.27c0,7.57,5.97,13.72,13.33,13.72c2.49,0,4.83-0.71,6.82-1.93l0,0c6.89-4.15,12.84,0,12.84,0
					l0.02-0.04c2.06,1.34,4.5,2.12,7.12,2.12C546.29,156.26,552.26,150.12,552.26,142.54z M533.52,147.49
					c-0.48,0.67-1.03,1.25-1.62,1.75c-1.69,1.46-3.82,2.19-6.38,2.19c-3.19,0-5.7-1.17-7.54-3.47c-0.11-0.14-0.24-0.27-0.34-0.42
					c-0.45-0.61-0.84-1.3-1.18-2.05c-0.05-0.12-0.1-0.25-0.15-0.37c-0.21-0.5-0.39-1.02-0.55-1.58c-0.2-0.66-0.36-1.36-0.49-2.09
					c0-0.02-0.01-0.04-0.01-0.07c-0.26-1.46-0.44-3.02-0.44-4.77c0-4.83,0.92-8.52,2.76-11.08c0.48-0.67,1.03-1.25,1.62-1.75
					c1.69-1.46,3.82-2.19,6.38-2.19c3.19,0,5.7,1.17,7.55,3.48c0.11,0.14,0.23,0.26,0.33,0.41c0.45,0.61,0.84,1.3,1.18,2.05
					c0.05,0.12,0.1,0.25,0.15,0.37c0.21,0.5,0.39,1.02,0.55,1.58c0.2,0.65,0.36,1.36,0.49,2.08c0,0.02,0.01,0.05,0.01,0.07
					c0.26,1.46,0.44,3.02,0.44,4.77C536.28,141.24,535.36,144.93,533.52,147.49z"/>
			</g>
		</g>
		<g>
			<path class="st5" d="M494.78,111.15c-1.35,1.13-2.48,2.4-3.19,3.89c-0.36,0.74-0.65,1.52-0.81,2.35
				c-0.2,0.82-0.24,1.67-0.33,2.56c-0.27-0.84-0.42-1.75-0.34-2.65c0.03-0.91,0.31-1.81,0.7-2.63c0.41-0.82,0.97-1.57,1.65-2.17
				C493.14,111.89,493.92,111.41,494.78,111.15z"/>
			<path class="st5" d="M511.68,90.06c-1.35,1.13-2.48,2.4-3.19,3.89c-0.36,0.74-0.65,1.52-0.81,2.35c-0.2,0.82-0.24,1.67-0.33,2.56
				c-0.27-0.84-0.42-1.75-0.34-2.65c0.03-0.91,0.31-1.81,0.7-2.63c0.41-0.82,0.97-1.57,1.65-2.17
				C510.04,90.8,510.82,90.32,511.68,90.06z"/>
			<path class="st5" d="M534.94,90.44c-1.35,1.13-2.48,2.4-3.19,3.89c-0.36,0.74-0.65,1.52-0.81,2.35c-0.2,0.82-0.24,1.67-0.33,2.56
				c-0.27-0.84-0.42-1.75-0.34-2.65c0.03-0.91,0.31-1.81,0.7-2.63c0.41-0.82,0.97-1.57,1.65-2.17
				C533.3,91.18,534.09,90.69,534.94,90.44z"/>
			<path class="st5" d="M551.26,111.15c-1.35,1.13-2.48,2.4-3.19,3.89c-0.36,0.74-0.65,1.52-0.81,2.35
				c-0.2,0.82-0.24,1.67-0.33,2.56c-0.27-0.84-0.42-1.75-0.34-2.65c0.03-0.91,0.31-1.81,0.7-2.63c0.41-0.82,0.97-1.57,1.65-2.17
				C549.62,111.89,550.4,111.41,551.26,111.15z"/>
			<path class="st5" d="M500.43,144.38c-0.15-1.87,0.13-3.76,0.69-5.58c0.58-1.81,1.52-3.53,2.85-4.93c0.66-0.7,1.42-1.31,2.25-1.8
				c0.82-0.52,1.75-0.81,2.56-1.19c0.83-0.38,1.64-0.83,2.4-1.33c0.75-0.52,1.49-1.11,1.9-1.95c-0.28,0.91-1,1.6-1.71,2.21
				c-0.72,0.61-1.53,1.11-2.36,1.56c-0.4,0.23-0.86,0.43-1.25,0.64c-0.4,0.21-0.78,0.45-1.15,0.7c-0.74,0.5-1.42,1.09-2.04,1.75
				c-1.21,1.32-2.14,2.89-2.8,4.59c-0.35,0.84-0.62,1.72-0.84,2.61C500.72,142.55,500.55,143.46,500.43,144.38z"/>
			<path class="st5" d="M515.38,122.34c-0.13-1.52,0.06-3.07,0.52-4.54c0.45-1.48,1.21-2.88,2.23-4.07
				c1.03-1.18,2.29-2.17,3.74-2.76c0.69-0.37,1.46-0.51,2.19-0.73c0.75-0.15,1.52-0.22,2.27-0.29c-0.72,0.26-1.46,0.41-2.15,0.69
				c-0.68,0.3-1.39,0.53-2.01,0.93c-1.31,0.67-2.44,1.62-3.38,2.72c-0.96,1.09-1.7,2.37-2.26,3.73
				C515.99,119.39,515.58,120.84,515.38,122.34z"/>
		</g>
	</g>
	<g>
		<text transform="matrix(1 0 0 1 2051.0447 23.9532)"><tspan x="0" y="0" style="font-family:'BalooChettan2-Regular'; font-size:16.4273px;">A B C D E F G H I J K L M N</tspan><tspan x="1.25" y="19.71" style="font-family:'BalooChettan2-Regular'; font-size:16.4273px;"> O P Q R S T U V W X Y Z</tspan></text>
		<text transform="matrix(1 0 0 1 2061.4265 88.9278)"><tspan x="0" y="0" style="font-family:'BalooChettan2-Regular'; font-size:16.4273px;">a b c d e f g h i j k l m n</tspan><tspan x="1.99" y="19.71" style="font-family:'BalooChettan2-Regular'; font-size:16.4273px;"> o p q r s t u v w x y z</tspan></text>
		<g>
			<text transform="matrix(1 0 0 1 2080.2605 153.9025)"><tspan x="0" y="0" style="font-family:'BalooChettan2-Regular'; font-size:16.4273px;">1 2 3 4 5 6 7 8 9 0</tspan><tspan x="-16.38" y="19.71" style="font-family:'BalooChettan2-Regular'; font-size:16.4273px;">. : , ;  ? !  ( )  $%&amp;/= *</tspan></text>
		</g>
		<text transform="matrix(1 0 0 1 2244.8755 23.8629)"><tspan x="0" y="0" style="font-family:'BalooChettan2-Medium'; font-size:16.4273px;">A B C D E F G H I J K L M N</tspan><tspan x="1.22" y="19.71" style="font-family:'BalooChettan2-Medium'; font-size:16.4273px;"> O P Q R S T U V W X Y Z</tspan></text>
		<g>
			<text transform="matrix(1 0 0 1 2254.7563 88.8385)"><tspan x="0" y="0" style="font-family:'BalooChettan2-Medium'; font-size:16.4273px;">a b c d e f g h i j k l m n</tspan><tspan x="2.04" y="19.71" style="font-family:'BalooChettan2-Medium'; font-size:16.4273px;"> o p q r s t u v w x y z</tspan></text>
		</g>
		<g>
			<text transform="matrix(1 0 0 1 2274.3955 153.8121)"><tspan x="0" y="0" style="font-family:'BalooChettan2-Medium'; font-size:16.4273px;">1 2 3 4 5 6 7 8 9 0</tspan><tspan x="-18.6" y="19.71" style="font-family:'BalooChettan2-Medium'; font-size:16.4273px;">. : , ;  ? !  ( )  $%&amp;/= *</tspan></text>
		</g>
		<text transform="matrix(1 0 0 1 2438.8716 23.7763)"><tspan x="0" y="0" style="font-family:'BalooChettan2-SemiBold'; font-size:16.4273px;">A B C D E F G H I J K L M N</tspan><tspan x="1.19" y="19.71" style="font-family:'BalooChettan2-SemiBold'; font-size:16.4273px;"> O P Q R S T U V W X Y Z</tspan></text>
		<g>
			<text transform="matrix(1 0 0 1 2448.3091 88.7519)"><tspan x="0" y="0" style="font-family:'BalooChettan2-SemiBold'; font-size:16.4273px;">a b c d e f g h i j k l m n</tspan><tspan x="2.08" y="19.71" style="font-family:'BalooChettan2-SemiBold'; font-size:16.4273px;"> o p q r s t u v w x y z</tspan></text>
		</g>
		<g>
			<text transform="matrix(1 0 0 1 2468.6787 153.7255)"><tspan x="0" y="0" style="font-family:'BalooChettan2-SemiBold'; font-size:16.4273px;">1 2 3 4 5 6 7 8 9 0</tspan><tspan x="-20.56" y="19.71" style="font-family:'BalooChettan2-SemiBold'; font-size:16.4273px;">. : , ;  ? !  ( )  $%&amp;/= *</tspan></text>
		</g>
		<text transform="matrix(1 0 0 1 2631.6682 23.5963)"><tspan x="0" y="0" style="font-family:'BalooChettan2-ExtraBold'; font-size:16.4273px;">A B C D E F G H I J K L M N</tspan><tspan x="1.14" y="19.71" style="font-family:'BalooChettan2-ExtraBold'; font-size:16.4273px;"> O P Q R S T U V W X Y Z</tspan></text>
		<text transform="matrix(1 0 0 1 2640.2346 88.5709)"><tspan x="0" y="0" style="font-family:'BalooChettan2-ExtraBold'; font-size:16.4273px;">a b c d e f g h i j k l m n</tspan><tspan x="2.15" y="19.71" style="font-family:'BalooChettan2-ExtraBold'; font-size:16.4273px;"> o p q r s t u v w x y z</tspan></text>
		<g>
			<text transform="matrix(1 0 0 1 2662.0417 153.5445)"><tspan x="0" y="0" style="font-family:'BalooChettan2-ExtraBold'; font-size:16.4273px;">1 2 3 4 5 6 7 8 9 0</tspan><tspan x="-24.48" y="19.71" style="font-family:'BalooChettan2-ExtraBold'; font-size:16.4273px;">. : , ;  ? !  ( )  $%&amp;/= *</tspan></text>
		</g>
		<circle cx="2416.37" cy="-122.21" r="84.39"/>
		<text transform="matrix(1 0 0 1 2369.6973 -139.3699)"><tspan x="0" y="0" class="st5" style="font-family:'BalooChettan2-Bold'; font-size:36.0872px;">Baloo</tspan><tspan x="-18.13" y="43.3" class="st5" style="font-family:'BalooChettan2-Bold'; font-size:36.0872px;">Chettan</tspan></text>
	</g>
</g>
<g id="Capa_6">
</g>
</svg>
